<svg width="324" height="96" viewBox="0 0 324 96" fill="none" xmlns="http://www.w3.org/2000/svg">
<g filter="url(#filter0_d_117_127)">
<rect x="26" y="22" width="272" height="44" rx="22" fill="#0C21C1"/>
</g>
<path d="M60.555 44.765C60.555 43.745 60.79 42.83 61.26 42.02C61.74 41.21 62.385 40.58 63.195 40.13C64.015 39.67 64.91 39.44 65.88 39.44C66.99 39.44 67.975 39.715 68.835 40.265C69.705 40.805 70.335 41.575 70.725 42.575H68.67C68.4 42.025 68.025 41.615 67.545 41.345C67.065 41.075 66.51 40.94 65.88 40.94C65.19 40.94 64.575 41.095 64.035 41.405C63.495 41.715 63.07 42.16 62.76 42.74C62.46 43.32 62.31 43.995 62.31 44.765C62.31 45.535 62.46 46.21 62.76 46.79C63.07 47.37 63.495 47.82 64.035 48.14C64.575 48.45 65.19 48.605 65.88 48.605C66.51 48.605 67.065 48.47 67.545 48.2C68.025 47.93 68.4 47.52 68.67 46.97H70.725C70.335 47.97 69.705 48.74 68.835 49.28C67.975 49.82 66.99 50.09 65.88 50.09C64.9 50.09 64.005 49.865 63.195 49.415C62.385 48.955 61.74 48.32 61.26 47.51C60.79 46.7 60.555 45.785 60.555 44.765ZM74.4366 42.935C74.6866 42.515 75.0166 42.19 75.4266 41.96C75.8466 41.72 76.3416 41.6 76.9116 41.6V43.37H76.4766C75.8066 43.37 75.2966 43.54 74.9466 43.88C74.6066 44.22 74.4366 44.81 74.4366 45.65V50H72.7266V41.735H74.4366V42.935ZM86.0584 45.665C86.0584 45.975 86.0384 46.255 85.9984 46.505H79.6834C79.7334 47.165 79.9784 47.695 80.4184 48.095C80.8584 48.495 81.3984 48.695 82.0384 48.695C82.9584 48.695 83.6084 48.31 83.9884 47.54H85.8334C85.5834 48.3 85.1284 48.925 84.4684 49.415C83.8184 49.895 83.0084 50.135 82.0384 50.135C81.2484 50.135 80.5384 49.96 79.9084 49.61C79.2884 49.25 78.7984 48.75 78.4384 48.11C78.0884 47.46 77.9134 46.71 77.9134 45.86C77.9134 45.01 78.0834 44.265 78.4234 43.625C78.7734 42.975 79.2584 42.475 79.8784 42.125C80.5084 41.775 81.2284 41.6 82.0384 41.6C82.8184 41.6 83.5134 41.77 84.1234 42.11C84.7334 42.45 85.2084 42.93 85.5484 43.55C85.8884 44.16 86.0584 44.865 86.0584 45.665ZM84.2734 45.125C84.2634 44.495 84.0384 43.99 83.5984 43.61C83.1584 43.23 82.6134 43.04 81.9634 43.04C81.3734 43.04 80.8684 43.23 80.4484 43.61C80.0284 43.98 79.7784 44.485 79.6984 45.125H84.2734ZM87.1712 45.83C87.1712 45 87.3412 44.265 87.6812 43.625C88.0312 42.985 88.5012 42.49 89.0912 42.14C89.6912 41.78 90.3512 41.6 91.0712 41.6C91.7212 41.6 92.2862 41.73 92.7662 41.99C93.2562 42.24 93.6462 42.555 93.9362 42.935V41.735H95.6612V50H93.9362V48.77C93.6462 49.16 93.2512 49.485 92.7512 49.745C92.2512 50.005 91.6812 50.135 91.0412 50.135C90.3312 50.135 89.6812 49.955 89.0912 49.595C88.5012 49.225 88.0312 48.715 87.6812 48.065C87.3412 47.405 87.1712 46.66 87.1712 45.83ZM93.9362 45.86C93.9362 45.29 93.8162 44.795 93.5762 44.375C93.3462 43.955 93.0412 43.635 92.6612 43.415C92.2812 43.195 91.8712 43.085 91.4312 43.085C90.9912 43.085 90.5812 43.195 90.2012 43.415C89.8212 43.625 89.5112 43.94 89.2712 44.36C89.0412 44.77 88.9262 45.26 88.9262 45.83C88.9262 46.4 89.0412 46.9 89.2712 47.33C89.5112 47.76 89.8212 48.09 90.2012 48.32C90.5912 48.54 91.0012 48.65 91.4312 48.65C91.8712 48.65 92.2812 48.54 92.6612 48.32C93.0412 48.1 93.3462 47.78 93.5762 47.36C93.8162 46.93 93.9362 46.43 93.9362 45.86ZM99.9022 43.13V47.705C99.9022 48.015 99.9722 48.24 100.112 48.38C100.262 48.51 100.512 48.575 100.862 48.575H101.912V50H100.562C99.7922 50 99.2022 49.82 98.7922 49.46C98.3822 49.1 98.1772 48.515 98.1772 47.705V43.13H97.2022V41.735H98.1772V39.68H99.9022V41.735H101.912V43.13H99.9022ZM111.063 45.665C111.063 45.975 111.043 46.255 111.003 46.505H104.688C104.738 47.165 104.983 47.695 105.423 48.095C105.863 48.495 106.403 48.695 107.043 48.695C107.963 48.695 108.613 48.31 108.993 47.54H110.838C110.588 48.3 110.133 48.925 109.473 49.415C108.823 49.895 108.013 50.135 107.043 50.135C106.253 50.135 105.543 49.96 104.913 49.61C104.293 49.25 103.803 48.75 103.443 48.11C103.093 47.46 102.918 46.71 102.918 45.86C102.918 45.01 103.088 44.265 103.428 43.625C103.778 42.975 104.263 42.475 104.883 42.125C105.513 41.775 106.233 41.6 107.043 41.6C107.823 41.6 108.518 41.77 109.128 42.11C109.738 42.45 110.213 42.93 110.553 43.55C110.893 44.16 111.063 44.865 111.063 45.665ZM109.278 45.125C109.268 44.495 109.043 43.99 108.603 43.61C108.163 43.23 107.618 43.04 106.968 43.04C106.378 43.04 105.873 43.23 105.453 43.61C105.033 43.98 104.783 44.485 104.703 45.125H109.278ZM116.073 45.86C116.073 45.01 116.243 44.265 116.583 43.625C116.933 42.975 117.413 42.475 118.023 42.125C118.633 41.775 119.333 41.6 120.123 41.6C121.123 41.6 121.948 41.84 122.598 42.32C123.258 42.79 123.703 43.465 123.933 44.345H122.088C121.938 43.935 121.698 43.615 121.368 43.385C121.038 43.155 120.623 43.04 120.123 43.04C119.423 43.04 118.863 43.29 118.443 43.79C118.033 44.28 117.828 44.97 117.828 45.86C117.828 46.75 118.033 47.445 118.443 47.945C118.863 48.445 119.423 48.695 120.123 48.695C121.113 48.695 121.768 48.26 122.088 47.39H123.933C123.693 48.23 123.243 48.9 122.583 49.4C121.923 49.89 121.103 50.135 120.123 50.135C119.333 50.135 118.633 49.96 118.023 49.61C117.413 49.25 116.933 48.75 116.583 48.11C116.243 47.46 116.073 46.71 116.073 45.86ZM133.212 45.665C133.212 45.975 133.192 46.255 133.152 46.505H126.837C126.887 47.165 127.132 47.695 127.572 48.095C128.012 48.495 128.552 48.695 129.192 48.695C130.112 48.695 130.762 48.31 131.142 47.54H132.987C132.737 48.3 132.282 48.925 131.622 49.415C130.972 49.895 130.162 50.135 129.192 50.135C128.402 50.135 127.692 49.96 127.062 49.61C126.442 49.25 125.952 48.75 125.592 48.11C125.242 47.46 125.067 46.71 125.067 45.86C125.067 45.01 125.237 44.265 125.577 43.625C125.927 42.975 126.412 42.475 127.032 42.125C127.662 41.775 128.382 41.6 129.192 41.6C129.972 41.6 130.667 41.77 131.277 42.11C131.887 42.45 132.362 42.93 132.702 43.55C133.042 44.16 133.212 44.865 133.212 45.665ZM131.427 45.125C131.417 44.495 131.192 43.99 130.752 43.61C130.312 43.23 129.767 43.04 129.117 43.04C128.527 43.04 128.022 43.23 127.602 43.61C127.182 43.98 126.932 44.485 126.852 45.125H131.427ZM136.605 42.935C136.855 42.515 137.185 42.19 137.595 41.96C138.015 41.72 138.51 41.6 139.08 41.6V43.37H138.645C137.975 43.37 137.465 43.54 137.115 43.88C136.775 44.22 136.605 44.81 136.605 45.65V50H134.895V41.735H136.605V42.935ZM142.646 43.13V47.705C142.646 48.015 142.716 48.24 142.856 48.38C143.006 48.51 143.256 48.575 143.606 48.575H144.656V50H143.306C142.536 50 141.946 49.82 141.536 49.46C141.126 49.1 140.921 48.515 140.921 47.705V43.13H139.946V41.735H140.921V39.68H142.646V41.735H144.656V43.13H142.646ZM147.102 40.64C146.792 40.64 146.532 40.535 146.322 40.325C146.112 40.115 146.007 39.855 146.007 39.545C146.007 39.235 146.112 38.975 146.322 38.765C146.532 38.555 146.792 38.45 147.102 38.45C147.402 38.45 147.657 38.555 147.867 38.765C148.077 38.975 148.182 39.235 148.182 39.545C148.182 39.855 148.077 40.115 147.867 40.325C147.657 40.535 147.402 40.64 147.102 40.64ZM147.942 41.735V50H146.232V41.735H147.942ZM153.653 43.13H152.123V50H150.398V43.13H149.423V41.735H150.398V41.15C150.398 40.2 150.648 39.51 151.148 39.08C151.658 38.64 152.453 38.42 153.533 38.42V39.845C153.013 39.845 152.648 39.945 152.438 40.145C152.228 40.335 152.123 40.67 152.123 41.15V41.735H153.653V43.13ZM156.038 40.64C155.728 40.64 155.468 40.535 155.258 40.325C155.048 40.115 154.943 39.855 154.943 39.545C154.943 39.235 155.048 38.975 155.258 38.765C155.468 38.555 155.728 38.45 156.038 38.45C156.338 38.45 156.593 38.555 156.803 38.765C157.013 38.975 157.118 39.235 157.118 39.545C157.118 39.855 157.013 40.115 156.803 40.325C156.593 40.535 156.338 40.64 156.038 40.64ZM156.878 41.735V50H155.168V41.735H156.878ZM158.553 45.86C158.553 45.01 158.723 44.265 159.063 43.625C159.413 42.975 159.893 42.475 160.503 42.125C161.113 41.775 161.813 41.6 162.603 41.6C163.603 41.6 164.428 41.84 165.078 42.32C165.738 42.79 166.183 43.465 166.413 44.345H164.568C164.418 43.935 164.178 43.615 163.848 43.385C163.518 43.155 163.103 43.04 162.603 43.04C161.903 43.04 161.343 43.29 160.923 43.79C160.513 44.28 160.308 44.97 160.308 45.86C160.308 46.75 160.513 47.445 160.923 47.945C161.343 48.445 161.903 48.695 162.603 48.695C163.593 48.695 164.248 48.26 164.568 47.39H166.413C166.173 48.23 165.723 48.9 165.063 49.4C164.403 49.89 163.583 50.135 162.603 50.135C161.813 50.135 161.113 49.96 160.503 49.61C159.893 49.25 159.413 48.75 159.063 48.11C158.723 47.46 158.553 46.71 158.553 45.86ZM167.547 45.83C167.547 45 167.717 44.265 168.057 43.625C168.407 42.985 168.877 42.49 169.467 42.14C170.067 41.78 170.727 41.6 171.447 41.6C172.097 41.6 172.662 41.73 173.142 41.99C173.632 42.24 174.022 42.555 174.312 42.935V41.735H176.037V50H174.312V48.77C174.022 49.16 173.627 49.485 173.127 49.745C172.627 50.005 172.057 50.135 171.417 50.135C170.707 50.135 170.057 49.955 169.467 49.595C168.877 49.225 168.407 48.715 168.057 48.065C167.717 47.405 167.547 46.66 167.547 45.83ZM174.312 45.86C174.312 45.29 174.192 44.795 173.952 44.375C173.722 43.955 173.417 43.635 173.037 43.415C172.657 43.195 172.247 43.085 171.807 43.085C171.367 43.085 170.957 43.195 170.577 43.415C170.197 43.625 169.887 43.94 169.647 44.36C169.417 44.77 169.302 45.26 169.302 45.83C169.302 46.4 169.417 46.9 169.647 47.33C169.887 47.76 170.197 48.09 170.577 48.32C170.967 48.54 171.377 48.65 171.807 48.65C172.247 48.65 172.657 48.54 173.037 48.32C173.417 48.1 173.722 47.78 173.952 47.36C174.192 46.93 174.312 46.43 174.312 45.86ZM180.278 43.13V47.705C180.278 48.015 180.348 48.24 180.488 48.38C180.638 48.51 180.888 48.575 181.238 48.575H182.288V50H180.938C180.168 50 179.578 49.82 179.168 49.46C178.758 49.1 178.553 48.515 178.553 47.705V43.13H177.578V41.735H178.553V39.68H180.278V41.735H182.288V43.13H180.278ZM191.439 45.665C191.439 45.975 191.419 46.255 191.379 46.505H185.064C185.114 47.165 185.359 47.695 185.799 48.095C186.239 48.495 186.779 48.695 187.419 48.695C188.339 48.695 188.989 48.31 189.369 47.54H191.214C190.964 48.3 190.509 48.925 189.849 49.415C189.199 49.895 188.389 50.135 187.419 50.135C186.629 50.135 185.919 49.96 185.289 49.61C184.669 49.25 184.179 48.75 183.819 48.11C183.469 47.46 183.294 46.71 183.294 45.86C183.294 45.01 183.464 44.265 183.804 43.625C184.154 42.975 184.639 42.475 185.259 42.125C185.889 41.775 186.609 41.6 187.419 41.6C188.199 41.6 188.894 41.77 189.504 42.11C190.114 42.45 190.589 42.93 190.929 43.55C191.269 44.16 191.439 44.865 191.439 45.665ZM189.654 45.125C189.644 44.495 189.419 43.99 188.979 43.61C188.539 43.23 187.994 43.04 187.344 43.04C186.754 43.04 186.249 43.23 185.829 43.61C185.409 43.98 185.159 44.485 185.079 45.125H189.654ZM196.122 50.135C195.472 50.135 194.887 50.02 194.367 49.79C193.857 49.55 193.452 49.23 193.152 48.83C192.852 48.42 192.692 47.965 192.672 47.465H194.442C194.472 47.815 194.637 48.11 194.937 48.35C195.247 48.58 195.632 48.695 196.092 48.695C196.572 48.695 196.942 48.605 197.202 48.425C197.472 48.235 197.607 47.995 197.607 47.705C197.607 47.395 197.457 47.165 197.157 47.015C196.867 46.865 196.402 46.7 195.762 46.52C195.142 46.35 194.637 46.185 194.247 46.025C193.857 45.865 193.517 45.62 193.227 45.29C192.947 44.96 192.807 44.525 192.807 43.985C192.807 43.545 192.937 43.145 193.197 42.785C193.457 42.415 193.827 42.125 194.307 41.915C194.797 41.705 195.357 41.6 195.987 41.6C196.927 41.6 197.682 41.84 198.252 42.32C198.832 42.79 199.142 43.435 199.182 44.255H197.472C197.442 43.885 197.292 43.59 197.022 43.37C196.752 43.15 196.387 43.04 195.927 43.04C195.477 43.04 195.132 43.125 194.892 43.295C194.652 43.465 194.532 43.69 194.532 43.97C194.532 44.19 194.612 44.375 194.772 44.525C194.932 44.675 195.127 44.795 195.357 44.885C195.587 44.965 195.927 45.07 196.377 45.2C196.977 45.36 197.467 45.525 197.847 45.695C198.237 45.855 198.572 46.095 198.852 46.415C199.132 46.735 199.277 47.16 199.287 47.69C199.287 48.16 199.157 48.58 198.897 48.95C198.637 49.32 198.267 49.61 197.787 49.82C197.317 50.03 196.762 50.135 196.122 50.135ZM208.496 43.13H206.966V50H205.241V43.13H204.266V41.735H205.241V41.15C205.241 40.2 205.491 39.51 205.991 39.08C206.501 38.64 207.296 38.42 208.376 38.42V39.845C207.856 39.845 207.491 39.945 207.281 40.145C207.071 40.335 206.966 40.67 206.966 41.15V41.735H208.496V43.13ZM211.722 42.935C211.972 42.515 212.302 42.19 212.712 41.96C213.132 41.72 213.627 41.6 214.197 41.6V43.37H213.762C213.092 43.37 212.582 43.54 212.232 43.88C211.892 44.22 211.722 44.81 211.722 45.65V50H210.012V41.735H211.722V42.935ZM219.354 50.135C218.574 50.135 217.869 49.96 217.239 49.61C216.609 49.25 216.114 48.75 215.754 48.11C215.394 47.46 215.214 46.71 215.214 45.86C215.214 45.02 215.399 44.275 215.769 43.625C216.139 42.975 216.644 42.475 217.284 42.125C217.924 41.775 218.639 41.6 219.429 41.6C220.219 41.6 220.934 41.775 221.574 42.125C222.214 42.475 222.719 42.975 223.089 43.625C223.459 44.275 223.644 45.02 223.644 45.86C223.644 46.7 223.454 47.445 223.074 48.095C222.694 48.745 222.174 49.25 221.514 49.61C220.864 49.96 220.144 50.135 219.354 50.135ZM219.354 48.65C219.794 48.65 220.204 48.545 220.584 48.335C220.974 48.125 221.289 47.81 221.529 47.39C221.769 46.97 221.889 46.46 221.889 45.86C221.889 45.26 221.774 44.755 221.544 44.345C221.314 43.925 221.009 43.61 220.629 43.4C220.249 43.19 219.839 43.085 219.399 43.085C218.959 43.085 218.549 43.19 218.169 43.4C217.799 43.61 217.504 43.925 217.284 44.345C217.064 44.755 216.954 45.26 216.954 45.86C216.954 46.75 217.179 47.44 217.629 47.93C218.089 48.41 218.664 48.65 219.354 48.65ZM235.339 41.6C235.989 41.6 236.569 41.735 237.079 42.005C237.599 42.275 238.004 42.675 238.294 43.205C238.594 43.735 238.744 44.375 238.744 45.125V50H237.049V45.38C237.049 44.64 236.864 44.075 236.494 43.685C236.124 43.285 235.619 43.085 234.979 43.085C234.339 43.085 233.829 43.285 233.449 43.685C233.079 44.075 232.894 44.64 232.894 45.38V50H231.199V45.38C231.199 44.64 231.014 44.075 230.644 43.685C230.274 43.285 229.769 43.085 229.129 43.085C228.489 43.085 227.979 43.285 227.599 43.685C227.229 44.075 227.044 44.64 227.044 45.38V50H225.334V41.735H227.044V42.68C227.324 42.34 227.679 42.075 228.109 41.885C228.539 41.695 228.999 41.6 229.489 41.6C230.149 41.6 230.739 41.74 231.259 42.02C231.779 42.3 232.179 42.705 232.459 43.235C232.709 42.735 233.099 42.34 233.629 42.05C234.159 41.75 234.729 41.6 235.339 41.6ZM246.526 40.955V44.015H250.126V45.41H246.526V48.605H250.576V50H244.816V39.56H250.576V40.955H246.526ZM256.223 45.815L258.893 50H256.958L255.173 47.195L253.493 50H251.708L254.378 45.935L251.708 41.735H253.643L255.428 44.54L257.108 41.735H258.893L256.223 45.815ZM259.598 45.86C259.598 45.01 259.768 44.265 260.108 43.625C260.458 42.975 260.938 42.475 261.548 42.125C262.158 41.775 262.858 41.6 263.648 41.6C264.648 41.6 265.473 41.84 266.123 42.32C266.783 42.79 267.228 43.465 267.458 44.345H265.613C265.463 43.935 265.223 43.615 264.893 43.385C264.563 43.155 264.148 43.04 263.648 43.04C262.948 43.04 262.388 43.29 261.968 43.79C261.558 44.28 261.353 44.97 261.353 45.86C261.353 46.75 261.558 47.445 261.968 47.945C262.388 48.445 262.948 48.695 263.648 48.695C264.638 48.695 265.293 48.26 265.613 47.39H267.458C267.218 48.23 266.768 48.9 266.108 49.4C265.448 49.89 264.628 50.135 263.648 50.135C262.858 50.135 262.158 49.96 261.548 49.61C260.938 49.25 260.458 48.75 260.108 48.11C259.768 47.46 259.598 46.71 259.598 45.86ZM276.737 45.665C276.737 45.975 276.717 46.255 276.677 46.505H270.362C270.412 47.165 270.657 47.695 271.097 48.095C271.537 48.495 272.077 48.695 272.717 48.695C273.637 48.695 274.287 48.31 274.667 47.54H276.512C276.262 48.3 275.807 48.925 275.147 49.415C274.497 49.895 273.687 50.135 272.717 50.135C271.927 50.135 271.217 49.96 270.587 49.61C269.967 49.25 269.477 48.75 269.117 48.11C268.767 47.46 268.592 46.71 268.592 45.86C268.592 45.01 268.762 44.265 269.102 43.625C269.452 42.975 269.937 42.475 270.557 42.125C271.187 41.775 271.907 41.6 272.717 41.6C273.497 41.6 274.192 41.77 274.802 42.11C275.412 42.45 275.887 42.93 276.227 43.55C276.567 44.16 276.737 44.865 276.737 45.665ZM274.952 45.125C274.942 44.495 274.717 43.99 274.277 43.61C273.837 43.23 273.292 43.04 272.642 43.04C272.052 43.04 271.547 43.23 271.127 43.61C270.707 43.98 270.457 44.485 270.377 45.125H274.952ZM280.13 38.9V50H278.42V38.9H280.13Z" fill="white"/>
<path d="M46.5 39V50" stroke="white" stroke-width="1.5" stroke-linecap="round" stroke-linejoin="round"/>
<path d="M41 44.5H52" stroke="white" stroke-width="1.5" stroke-linecap="round" stroke-linejoin="round"/>
<defs>
<filter id="filter0_d_117_127" x="0" y="0" width="324" height="96" filterUnits="userSpaceOnUse" color-interpolation-filters="sRGB">
<feFlood flood-opacity="0" result="BackgroundImageFix"/>
<feColorMatrix in="SourceAlpha" type="matrix" values="0 0 0 0 0 0 0 0 0 0 0 0 0 0 0 0 0 0 127 0" result="hardAlpha"/>
<feOffset dy="4"/>
<feGaussianBlur stdDeviation="13"/>
<feColorMatrix type="matrix" values="0 0 0 0 0 0 0 0 0 0 0 0 0 0 0 0 0 0 0.25 0"/>
<feBlend mode="normal" in2="BackgroundImageFix" result="effect1_dropShadow_117_127"/>
<feBlend mode="normal" in="SourceGraphic" in2="effect1_dropShadow_117_127" result="shape"/>
</filter>
</defs>
</svg>
