<svg width="103" height="22" viewBox="0 0 103 22" fill="none" xmlns="http://www.w3.org/2000/svg">
<path d="M0.7 9C0.7 7.62667 1.00667 6.4 1.62 5.32C2.24667 4.22667 3.09333 3.38 4.16 2.78C5.24 2.16667 6.44667 1.86 7.78 1.86C9.34 1.86 10.7067 2.26 11.88 3.06C13.0533 3.86 13.8733 4.96667 14.34 6.38H11.12C10.8 5.71333 10.3467 5.21333 9.76 4.88C9.18667 4.54667 8.52 4.38 7.76 4.38C6.94667 4.38 6.22 4.57333 5.58 4.96C4.95333 5.33333 4.46 5.86667 4.1 6.56C3.75333 7.25333 3.58 8.06667 3.58 9C3.58 9.92 3.75333 10.7333 4.1 11.44C4.46 12.1333 4.95333 12.6733 5.58 13.06C6.22 13.4333 6.94667 13.62 7.76 13.62C8.52 13.62 9.18667 13.4533 9.76 13.12C10.3467 12.7733 10.8 12.2667 11.12 11.6H14.34C13.8733 13.0267 13.0533 14.14 11.88 14.94C10.72 15.7267 9.35333 16.12 7.78 16.12C6.44667 16.12 5.24 15.82 4.16 15.22C3.09333 14.6067 2.24667 13.76 1.62 12.68C1.00667 11.6 0.7 10.3733 0.7 9ZM27.0316 10.22C27.0316 10.62 27.0049 10.98 26.9516 11.3H18.8516C18.9182 12.1 19.1982 12.7267 19.6916 13.18C20.1849 13.6333 20.7916 13.86 21.5116 13.86C22.5516 13.86 23.2916 13.4133 23.7316 12.52H26.7516C26.4316 13.5867 25.8182 14.4667 24.9116 15.16C24.0049 15.84 22.8916 16.18 21.5716 16.18C20.5049 16.18 19.5449 15.9467 18.6916 15.48C17.8516 15 17.1916 14.3267 16.7116 13.46C16.2449 12.5933 16.0116 11.5933 16.0116 10.46C16.0116 9.31333 16.2449 8.30667 16.7116 7.44C17.1782 6.57333 17.8316 5.90667 18.6716 5.44C19.5116 4.97333 20.4782 4.74 21.5716 4.74C22.6249 4.74 23.5649 4.96667 24.3916 5.42C25.2316 5.87333 25.8782 6.52 26.3316 7.36C26.7982 8.18667 27.0316 9.14 27.0316 10.22ZM24.1316 9.42C24.1182 8.7 23.8582 8.12667 23.3516 7.7C22.8449 7.26 22.2249 7.04 21.4916 7.04C20.7982 7.04 20.2116 7.25333 19.7316 7.68C19.2649 8.09333 18.9782 8.67333 18.8716 9.42H24.1316ZM31.8753 6.64C32.2353 6.05333 32.702 5.59333 33.2753 5.26C33.862 4.92667 34.5286 4.76 35.2753 4.76V7.7H34.5353C33.6553 7.7 32.9886 7.90667 32.5353 8.32C32.0953 8.73333 31.8753 9.45333 31.8753 10.48V16H29.0753V4.92H31.8753V6.64ZM40.4213 7.22V12.58C40.4213 12.9533 40.5079 13.2267 40.6813 13.4C40.8679 13.56 41.1746 13.64 41.6013 13.64H42.9013V16H41.1413C38.7813 16 37.6013 14.8533 37.6013 12.56V7.22H36.2813V4.92H37.6013V2.18H40.4213V4.92H42.9013V7.22H40.4213ZM57.4552 2.04L52.3352 16H48.9352L43.8152 2.04H46.8152L50.6552 13.14L54.4752 2.04H57.4552ZM69.4339 10.22C69.4339 10.62 69.4072 10.98 69.3539 11.3H61.2539C61.3206 12.1 61.6006 12.7267 62.0939 13.18C62.5872 13.6333 63.1939 13.86 63.9139 13.86C64.9539 13.86 65.6939 13.4133 66.1339 12.52H69.1539C68.8339 13.5867 68.2206 14.4667 67.3139 15.16C66.4072 15.84 65.2939 16.18 63.9739 16.18C62.9072 16.18 61.9472 15.9467 61.0939 15.48C60.2539 15 59.5939 14.3267 59.1139 13.46C58.6472 12.5933 58.4139 11.5933 58.4139 10.46C58.4139 9.31333 58.6472 8.30667 59.1139 7.44C59.5806 6.57333 60.2339 5.90667 61.0739 5.44C61.9139 4.97333 62.8806 4.74 63.9739 4.74C65.0272 4.74 65.9672 4.96667 66.7939 5.42C67.6339 5.87333 68.2806 6.52 68.7339 7.36C69.2006 8.18667 69.4339 9.14 69.4339 10.22ZM66.5339 9.42C66.5206 8.7 66.2606 8.12667 65.7539 7.7C65.2472 7.26 64.6272 7.04 63.8939 7.04C63.2006 7.04 62.6139 7.25333 62.1339 7.68C61.6672 8.09333 61.3806 8.67333 61.2739 9.42H66.5339ZM74.2777 6.64C74.6377 6.05333 75.1043 5.59333 75.6777 5.26C76.2643 4.92667 76.931 4.76 77.6777 4.76V7.7H76.9377C76.0577 7.7 75.391 7.90667 74.9377 8.32C74.4977 8.73333 74.2777 9.45333 74.2777 10.48V16H71.4777V4.92H74.2777V6.64ZM80.9836 3.6C80.4903 3.6 80.0769 3.44667 79.7436 3.14C79.4236 2.82 79.2636 2.42667 79.2636 1.96C79.2636 1.49333 79.4236 1.10667 79.7436 0.799999C80.0769 0.479999 80.4903 0.319999 80.9836 0.319999C81.4769 0.319999 81.8836 0.479999 82.2036 0.799999C82.5369 1.10667 82.7036 1.49333 82.7036 1.96C82.7036 2.42667 82.5369 2.82 82.2036 3.14C81.8836 3.44667 81.4769 3.6 80.9836 3.6ZM82.3636 4.92V16H79.5636V4.92H82.3636ZM90.21 7.22H88.27V16H85.43V7.22H84.17V4.92H85.43V4.36C85.43 3 85.8167 2 86.59 1.36C87.3633 0.719999 88.53 0.42 90.09 0.46V2.82C89.41 2.80667 88.9367 2.92 88.67 3.16C88.4033 3.4 88.27 3.83333 88.27 4.46V4.92H90.21V7.22ZM102.625 4.92L95.7645 21.24H92.7845L95.1845 15.72L90.7445 4.92H93.8845L96.7445 12.66L99.6445 4.92H102.625Z" fill="black"/>
</svg>
