<svg width="106" height="18" viewBox="0 0 106 18" fill="none" xmlns="http://www.w3.org/2000/svg">
<path d="M0.98382 9.114C0.98382 8.162 1.20315 7.308 1.64182 6.552C2.08982 5.796 2.69182 5.208 3.44782 4.788C4.21315 4.35867 5.04849 4.144 5.95382 4.144C6.98982 4.144 7.90915 4.40067 8.71182 4.914C9.52382 5.418 10.1118 6.13667 10.4758 7.07H8.55782C8.30582 6.55667 7.95582 6.174 7.50782 5.922C7.05982 5.67 6.54182 5.544 5.95382 5.544C5.30982 5.544 4.73582 5.68867 4.23182 5.978C3.72782 6.26733 3.33115 6.68267 3.04182 7.224C2.76182 7.76533 2.62182 8.39533 2.62182 9.114C2.62182 9.83267 2.76182 10.4627 3.04182 11.004C3.33115 11.5453 3.72782 11.9653 4.23182 12.264C4.73582 12.5533 5.30982 12.698 5.95382 12.698C6.54182 12.698 7.05982 12.572 7.50782 12.32C7.95582 12.068 8.30582 11.6853 8.55782 11.172H10.4758C10.1118 12.1053 9.52382 12.824 8.71182 13.328C7.90915 13.832 6.98982 14.084 5.95382 14.084C5.03915 14.084 4.20382 13.874 3.44782 13.454C2.69182 13.0247 2.08982 12.432 1.64182 11.676C1.20315 10.92 0.98382 10.066 0.98382 9.114ZM19.4139 9.954C19.4139 10.2433 19.3953 10.5047 19.3579 10.738H13.4639C13.5106 11.354 13.7393 11.8487 14.1499 12.222C14.5606 12.5953 15.0646 12.782 15.6619 12.782C16.5206 12.782 17.1273 12.4227 17.4819 11.704H19.2039C18.9706 12.4133 18.5459 12.9967 17.9299 13.454C17.3233 13.902 16.5673 14.126 15.6619 14.126C14.9246 14.126 14.2619 13.9627 13.6739 13.636C13.0953 13.3 12.6379 12.8333 12.3019 12.236C11.9753 11.6293 11.8119 10.9293 11.8119 10.136C11.8119 9.34267 11.9706 8.64733 12.2879 8.05C12.6146 7.44333 13.0673 6.97667 13.6459 6.65C14.2339 6.32333 14.9059 6.16 15.6619 6.16C16.3899 6.16 17.0386 6.31867 17.6079 6.636C18.1773 6.95333 18.6206 7.40133 18.9379 7.98C19.2553 8.54933 19.4139 9.20733 19.4139 9.954ZM17.7479 9.45C17.7386 8.862 17.5286 8.39067 17.1179 8.036C16.7073 7.68133 16.1986 7.504 15.5919 7.504C15.0413 7.504 14.5699 7.68133 14.1779 8.036C13.7859 8.38133 13.5526 8.85267 13.4779 9.45H17.7479ZM22.5806 7.406C22.8139 7.014 23.1219 6.71067 23.5046 6.496C23.8966 6.272 24.3586 6.16 24.8906 6.16V7.812H24.4846C23.8592 7.812 23.3832 7.97067 23.0566 8.288C22.7392 8.60533 22.5806 9.156 22.5806 9.94V14H20.9846V6.286H22.5806V7.406ZM28.2196 7.588V11.858C28.2196 12.1473 28.285 12.3573 28.4156 12.488C28.5556 12.6093 28.789 12.67 29.1156 12.67H30.0956V14H28.8356C28.117 14 27.5663 13.832 27.1836 13.496C26.801 13.16 26.6096 12.614 26.6096 11.858V7.588H25.6996V6.286H26.6096V4.368H28.2196V6.286H30.0956V7.588H28.2196ZM32.3786 5.264C32.0893 5.264 31.8466 5.166 31.6506 4.97C31.4546 4.774 31.3566 4.53133 31.3566 4.242C31.3566 3.95267 31.4546 3.71 31.6506 3.514C31.8466 3.318 32.0893 3.22 32.3786 3.22C32.6586 3.22 32.8966 3.318 33.0926 3.514C33.2886 3.71 33.3866 3.95267 33.3866 4.242C33.3866 4.53133 33.2886 4.774 33.0926 4.97C32.8966 5.166 32.6586 5.264 32.3786 5.264ZM33.1626 6.286V14H31.5666V6.286H33.1626ZM38.492 7.588H37.064V14H35.454V7.588H34.544V6.286H35.454V5.74C35.454 4.85333 35.6873 4.20933 36.154 3.808C36.63 3.39733 37.372 3.192 38.38 3.192V4.522C37.8947 4.522 37.554 4.61533 37.358 4.802C37.162 4.97933 37.064 5.292 37.064 5.74V6.286H38.492V7.588ZM40.7184 5.264C40.4291 5.264 40.1864 5.166 39.9904 4.97C39.7944 4.774 39.6964 4.53133 39.6964 4.242C39.6964 3.95267 39.7944 3.71 39.9904 3.514C40.1864 3.318 40.4291 3.22 40.7184 3.22C40.9984 3.22 41.2364 3.318 41.4324 3.514C41.6284 3.71 41.7264 3.95267 41.7264 4.242C41.7264 4.53133 41.6284 4.774 41.4324 4.97C41.2364 5.166 40.9984 5.264 40.7184 5.264ZM41.5024 6.286V14H39.9064V6.286H41.5024ZM43.0659 10.136C43.0659 9.34267 43.2245 8.64733 43.5419 8.05C43.8685 7.44333 44.3165 6.97667 44.8859 6.65C45.4552 6.32333 46.1085 6.16 46.8459 6.16C47.7792 6.16 48.5492 6.384 49.1559 6.832C49.7719 7.27067 50.1872 7.90067 50.4019 8.722H48.6799C48.5399 8.33933 48.3159 8.04067 48.0079 7.826C47.6999 7.61133 47.3125 7.504 46.8459 7.504C46.1925 7.504 45.6699 7.73733 45.2779 8.204C44.8952 8.66133 44.7039 9.30533 44.7039 10.136C44.7039 10.9667 44.8952 11.6153 45.2779 12.082C45.6699 12.5487 46.1925 12.782 46.8459 12.782C47.7699 12.782 48.3812 12.376 48.6799 11.564H50.4019C50.1779 12.348 49.7579 12.9733 49.1419 13.44C48.5259 13.8973 47.7605 14.126 46.8459 14.126C46.1085 14.126 45.4552 13.9627 44.8859 13.636C44.3165 13.3 43.8685 12.8333 43.5419 12.236C43.2245 11.6293 43.0659 10.9293 43.0659 10.136ZM51.4604 10.108C51.4604 9.33333 51.619 8.64733 51.9364 8.05C52.263 7.45267 52.7017 6.99067 53.2524 6.664C53.8124 6.328 54.4284 6.16 55.1004 6.16C55.707 6.16 56.2344 6.28133 56.6824 6.524C57.1397 6.75733 57.5037 7.05133 57.7744 7.406V6.286H59.3844V14H57.7744V12.852C57.5037 13.216 57.135 13.5193 56.6684 13.762C56.2017 14.0047 55.6697 14.126 55.0724 14.126C54.4097 14.126 53.803 13.958 53.2524 13.622C52.7017 13.2767 52.263 12.8007 51.9364 12.194C51.619 11.578 51.4604 10.8827 51.4604 10.108ZM57.7744 10.136C57.7744 9.604 57.6624 9.142 57.4384 8.75C57.2237 8.358 56.939 8.05933 56.5844 7.854C56.2297 7.64867 55.847 7.546 55.4364 7.546C55.0257 7.546 54.643 7.64867 54.2884 7.854C53.9337 8.05 53.6444 8.344 53.4204 8.736C53.2057 9.11867 53.0984 9.576 53.0984 10.108C53.0984 10.64 53.2057 11.1067 53.4204 11.508C53.6444 11.9093 53.9337 12.2173 54.2884 12.432C54.6524 12.6373 55.035 12.74 55.4364 12.74C55.847 12.74 56.2297 12.6373 56.5844 12.432C56.939 12.2267 57.2237 11.928 57.4384 11.536C57.6624 11.1347 57.7744 10.668 57.7744 10.136ZM63.3427 7.588V11.858C63.3427 12.1473 63.408 12.3573 63.5387 12.488C63.6787 12.6093 63.912 12.67 64.2387 12.67H65.2187V14H63.9587C63.24 14 62.6893 13.832 62.3067 13.496C61.924 13.16 61.7327 12.614 61.7327 11.858V7.588H60.8227V6.286H61.7327V4.368H63.3427V6.286H65.2187V7.588H63.3427ZM73.7596 9.954C73.7596 10.2433 73.741 10.5047 73.7036 10.738H67.8096C67.8563 11.354 68.085 11.8487 68.4956 12.222C68.9063 12.5953 69.4103 12.782 70.0076 12.782C70.8663 12.782 71.473 12.4227 71.8276 11.704H73.5496C73.3163 12.4133 72.8916 12.9967 72.2756 13.454C71.669 13.902 70.913 14.126 70.0076 14.126C69.2703 14.126 68.6076 13.9627 68.0196 13.636C67.441 13.3 66.9836 12.8333 66.6476 12.236C66.321 11.6293 66.1576 10.9293 66.1576 10.136C66.1576 9.34267 66.3163 8.64733 66.6336 8.05C66.9603 7.44333 67.413 6.97667 67.9916 6.65C68.5796 6.32333 69.2516 6.16 70.0076 6.16C70.7356 6.16 71.3843 6.31867 71.9536 6.636C72.523 6.95333 72.9663 7.40133 73.2836 7.98C73.601 8.54933 73.7596 9.20733 73.7596 9.954ZM72.0936 9.45C72.0843 8.862 71.8743 8.39067 71.4636 8.036C71.053 7.68133 70.5443 7.504 69.9376 7.504C69.387 7.504 68.9156 7.68133 68.5236 8.036C68.1316 8.38133 67.8983 8.85267 67.8236 9.45H72.0936ZM80.563 4.27V14H78.967V4.27H80.563ZM85.8364 4.27C86.8724 4.27 87.7777 4.47067 88.5524 4.872C89.3364 5.264 89.9384 5.83333 90.3584 6.58C90.7877 7.31733 91.0024 8.18067 91.0024 9.17C91.0024 10.1593 90.7877 11.018 90.3584 11.746C89.9384 12.474 89.3364 13.034 88.5524 13.426C87.7777 13.8087 86.8724 14 85.8364 14H82.6584V4.27H85.8364ZM85.8364 12.698C86.9751 12.698 87.8477 12.39 88.4544 11.774C89.0611 11.158 89.3644 10.29 89.3644 9.17C89.3644 8.04067 89.0611 7.15867 88.4544 6.524C87.8477 5.88933 86.9751 5.572 85.8364 5.572H84.2544V12.698H85.8364Z" fill="#999999"/>
<path d="M102.319 15.8052C102.242 15.934 102.135 16.0404 102.008 16.1141C101.881 16.1879 101.738 16.2266 101.592 16.2266C101.446 16.2266 101.303 16.1879 101.176 16.1141C101.049 16.0404 100.942 15.934 100.865 15.8052L98.1299 11.2524C98.0489 11.1173 98.0041 10.9621 98.0003 10.8029C97.9964 10.6437 98.0336 10.4863 98.108 10.3472C98.1824 10.2081 98.2912 10.0923 98.4232 10.0118C98.5551 9.93142 98.7054 9.88934 98.8582 9.88998H104.329C104.481 9.89061 104.631 9.93362 104.762 10.0146C104.893 10.0955 105.001 10.2114 105.074 10.3503C105.148 10.4892 105.184 10.6461 105.18 10.8047C105.176 10.9633 105.131 11.1178 105.051 11.2524L102.319 15.8052Z" fill="#999999"/>
<path d="M100.871 2.19481C100.947 2.06595 101.054 1.95962 101.181 1.88588C101.309 1.81214 101.452 1.77344 101.597 1.77344C101.743 1.77344 101.886 1.81214 102.013 1.88588C102.14 1.95962 102.247 2.06595 102.324 2.19481L105.059 6.74764C105.14 6.88269 105.185 7.0379 105.189 7.1971C105.193 7.3563 105.156 7.51367 105.081 7.6528C105.007 7.79194 104.898 7.90774 104.766 7.98816C104.634 8.06858 104.484 8.11066 104.331 8.11002H98.8601C98.7078 8.10939 98.5584 8.06638 98.4274 7.98545C98.2964 7.90452 98.1886 7.7886 98.115 7.64969C98.0414 7.51077 98.0048 7.35391 98.009 7.19532C98.0131 7.03673 98.0579 6.88218 98.1386 6.74764L100.871 2.19481Z" fill="#999999"/>
</svg>
