<svg width="281" height="96" viewBox="0 0 281 96" fill="none" xmlns="http://www.w3.org/2000/svg">
<g filter="url(#filter0_d_117_31)">
<rect x="26" y="22" width="229" height="43.9581" rx="21.979" fill="#0CC18B"/>
</g>
<path d="M57.555 44.765C57.555 43.745 57.79 42.83 58.26 42.02C58.74 41.21 59.385 40.58 60.195 40.13C61.015 39.67 61.91 39.44 62.88 39.44C63.99 39.44 64.975 39.715 65.835 40.265C66.705 40.805 67.335 41.575 67.725 42.575H65.67C65.4 42.025 65.025 41.615 64.545 41.345C64.065 41.075 63.51 40.94 62.88 40.94C62.19 40.94 61.575 41.095 61.035 41.405C60.495 41.715 60.07 42.16 59.76 42.74C59.46 43.32 59.31 43.995 59.31 44.765C59.31 45.535 59.46 46.21 59.76 46.79C60.07 47.37 60.495 47.82 61.035 48.14C61.575 48.45 62.19 48.605 62.88 48.605C63.51 48.605 64.065 48.47 64.545 48.2C65.025 47.93 65.4 47.52 65.67 46.97H67.725C67.335 47.97 66.705 48.74 65.835 49.28C64.975 49.82 63.99 50.09 62.88 50.09C61.9 50.09 61.005 49.865 60.195 49.415C59.385 48.955 58.74 48.32 58.26 47.51C57.79 46.7 57.555 45.785 57.555 44.765ZM73.3116 50.135C72.5316 50.135 71.8266 49.96 71.1966 49.61C70.5666 49.25 70.0716 48.75 69.7116 48.11C69.3516 47.46 69.1716 46.71 69.1716 45.86C69.1716 45.02 69.3566 44.275 69.7266 43.625C70.0966 42.975 70.6016 42.475 71.2416 42.125C71.8816 41.775 72.5966 41.6 73.3866 41.6C74.1766 41.6 74.8916 41.775 75.5316 42.125C76.1716 42.475 76.6766 42.975 77.0466 43.625C77.4166 44.275 77.6016 45.02 77.6016 45.86C77.6016 46.7 77.4116 47.445 77.0316 48.095C76.6516 48.745 76.1316 49.25 75.4716 49.61C74.8216 49.96 74.1016 50.135 73.3116 50.135ZM73.3116 48.65C73.7516 48.65 74.1616 48.545 74.5416 48.335C74.9316 48.125 75.2466 47.81 75.4866 47.39C75.7266 46.97 75.8466 46.46 75.8466 45.86C75.8466 45.26 75.7316 44.755 75.5016 44.345C75.2716 43.925 74.9666 43.61 74.5866 43.4C74.2066 43.19 73.7966 43.085 73.3566 43.085C72.9166 43.085 72.5066 43.19 72.1266 43.4C71.7566 43.61 71.4616 43.925 71.2416 44.345C71.0216 44.755 70.9116 45.26 70.9116 45.86C70.9116 46.75 71.1366 47.44 71.5866 47.93C72.0466 48.41 72.6216 48.65 73.3116 48.65ZM83.462 41.6C84.112 41.6 84.692 41.735 85.202 42.005C85.722 42.275 86.127 42.675 86.417 43.205C86.707 43.735 86.852 44.375 86.852 45.125V50H85.157V45.38C85.157 44.64 84.972 44.075 84.602 43.685C84.232 43.285 83.727 43.085 83.087 43.085C82.447 43.085 81.937 43.285 81.557 43.685C81.187 44.075 81.002 44.64 81.002 45.38V50H79.292V41.735H81.002V42.68C81.282 42.34 81.637 42.075 82.067 41.885C82.507 41.695 82.972 41.6 83.462 41.6ZM93.2032 41.6C93.8532 41.6 94.4332 41.735 94.9432 42.005C95.4632 42.275 95.8682 42.675 96.1582 43.205C96.4482 43.735 96.5932 44.375 96.5932 45.125V50H94.8982V45.38C94.8982 44.64 94.7132 44.075 94.3432 43.685C93.9732 43.285 93.4682 43.085 92.8282 43.085C92.1882 43.085 91.6782 43.285 91.2982 43.685C90.9282 44.075 90.7432 44.64 90.7432 45.38V50H89.0332V41.735H90.7432V42.68C91.0232 42.34 91.3782 42.075 91.8082 41.885C92.2482 41.695 92.7132 41.6 93.2032 41.6ZM106.349 45.665C106.349 45.975 106.329 46.255 106.289 46.505H99.9744C100.024 47.165 100.269 47.695 100.709 48.095C101.149 48.495 101.689 48.695 102.329 48.695C103.249 48.695 103.899 48.31 104.279 47.54H106.124C105.874 48.3 105.419 48.925 104.759 49.415C104.109 49.895 103.299 50.135 102.329 50.135C101.539 50.135 100.829 49.96 100.199 49.61C99.5794 49.25 99.0894 48.75 98.7294 48.11C98.3794 47.46 98.2044 46.71 98.2044 45.86C98.2044 45.01 98.3744 44.265 98.7144 43.625C99.0644 42.975 99.5494 42.475 100.169 42.125C100.799 41.775 101.519 41.6 102.329 41.6C103.109 41.6 103.804 41.77 104.414 42.11C105.024 42.45 105.499 42.93 105.839 43.55C106.179 44.16 106.349 44.865 106.349 45.665ZM104.564 45.125C104.554 44.495 104.329 43.99 103.889 43.61C103.449 43.23 102.904 43.04 102.254 43.04C101.664 43.04 101.159 43.23 100.739 43.61C100.319 43.98 100.069 44.485 99.9894 45.125H104.564ZM107.462 45.86C107.462 45.01 107.632 44.265 107.972 43.625C108.322 42.975 108.802 42.475 109.412 42.125C110.022 41.775 110.722 41.6 111.512 41.6C112.512 41.6 113.337 41.84 113.987 42.32C114.647 42.79 115.092 43.465 115.322 44.345H113.477C113.327 43.935 113.087 43.615 112.757 43.385C112.427 43.155 112.012 43.04 111.512 43.04C110.812 43.04 110.252 43.29 109.832 43.79C109.422 44.28 109.217 44.97 109.217 45.86C109.217 46.75 109.422 47.445 109.832 47.945C110.252 48.445 110.812 48.695 111.512 48.695C112.502 48.695 113.157 48.26 113.477 47.39H115.322C115.082 48.23 114.632 48.9 113.972 49.4C113.312 49.89 112.492 50.135 111.512 50.135C110.722 50.135 110.022 49.96 109.412 49.61C108.802 49.25 108.322 48.75 107.972 48.11C107.632 47.46 107.462 46.71 107.462 45.86ZM119.021 43.13V47.705C119.021 48.015 119.091 48.24 119.231 48.38C119.381 48.51 119.631 48.575 119.981 48.575H121.031V50H119.681C118.911 50 118.321 49.82 117.911 49.46C117.501 49.1 117.296 48.515 117.296 47.705V43.13H116.321V41.735H117.296V39.68H119.021V41.735H121.031V43.13H119.021ZM128.499 43.13V47.705C128.499 48.015 128.569 48.24 128.709 48.38C128.859 48.51 129.109 48.575 129.459 48.575H130.509V50H129.159C128.389 50 127.799 49.82 127.389 49.46C126.979 49.1 126.774 48.515 126.774 47.705V43.13H125.799V41.735H126.774V39.68H128.499V41.735H130.509V43.13H128.499ZM135.67 50.135C134.89 50.135 134.185 49.96 133.555 49.61C132.925 49.25 132.43 48.75 132.07 48.11C131.71 47.46 131.53 46.71 131.53 45.86C131.53 45.02 131.715 44.275 132.085 43.625C132.455 42.975 132.96 42.475 133.6 42.125C134.24 41.775 134.955 41.6 135.745 41.6C136.535 41.6 137.25 41.775 137.89 42.125C138.53 42.475 139.035 42.975 139.405 43.625C139.775 44.275 139.96 45.02 139.96 45.86C139.96 46.7 139.77 47.445 139.39 48.095C139.01 48.745 138.49 49.25 137.83 49.61C137.18 49.96 136.46 50.135 135.67 50.135ZM135.67 48.65C136.11 48.65 136.52 48.545 136.9 48.335C137.29 48.125 137.605 47.81 137.845 47.39C138.085 46.97 138.205 46.46 138.205 45.86C138.205 45.26 138.09 44.755 137.86 44.345C137.63 43.925 137.325 43.61 136.945 43.4C136.565 43.19 136.155 43.085 135.715 43.085C135.275 43.085 134.865 43.19 134.485 43.4C134.115 43.61 133.82 43.925 133.6 44.345C133.38 44.755 133.27 45.26 133.27 45.86C133.27 46.75 133.495 47.44 133.945 47.93C134.405 48.41 134.98 48.65 135.67 48.65ZM156.527 39.575V50H154.817V42.86L151.637 50H150.452L147.257 42.86V50H145.547V39.575H147.392L151.052 47.75L154.697 39.575H156.527ZM166.349 45.665C166.349 45.975 166.329 46.255 166.289 46.505H159.974C160.024 47.165 160.269 47.695 160.709 48.095C161.149 48.495 161.689 48.695 162.329 48.695C163.249 48.695 163.899 48.31 164.279 47.54H166.124C165.874 48.3 165.419 48.925 164.759 49.415C164.109 49.895 163.299 50.135 162.329 50.135C161.539 50.135 160.829 49.96 160.199 49.61C159.579 49.25 159.089 48.75 158.729 48.11C158.379 47.46 158.204 46.71 158.204 45.86C158.204 45.01 158.374 44.265 158.714 43.625C159.064 42.975 159.549 42.475 160.169 42.125C160.799 41.775 161.519 41.6 162.329 41.6C163.109 41.6 163.804 41.77 164.414 42.11C165.024 42.45 165.499 42.93 165.839 43.55C166.179 44.16 166.349 44.865 166.349 45.665ZM164.564 45.125C164.554 44.495 164.329 43.99 163.889 43.61C163.449 43.23 162.904 43.04 162.254 43.04C161.664 43.04 161.159 43.23 160.739 43.61C160.319 43.98 160.069 44.485 159.989 45.125H164.564ZM170.027 43.13V47.705C170.027 48.015 170.097 48.24 170.237 48.38C170.387 48.51 170.637 48.575 170.987 48.575H172.037V50H170.687C169.917 50 169.327 49.82 168.917 49.46C168.507 49.1 168.302 48.515 168.302 47.705V43.13H167.327V41.735H168.302V39.68H170.027V41.735H172.037V43.13H170.027ZM173.043 45.83C173.043 45 173.213 44.265 173.553 43.625C173.903 42.985 174.373 42.49 174.963 42.14C175.563 41.78 176.223 41.6 176.943 41.6C177.593 41.6 178.158 41.73 178.638 41.99C179.128 42.24 179.518 42.555 179.808 42.935V41.735H181.533V50H179.808V48.77C179.518 49.16 179.123 49.485 178.623 49.745C178.123 50.005 177.553 50.135 176.913 50.135C176.203 50.135 175.553 49.955 174.963 49.595C174.373 49.225 173.903 48.715 173.553 48.065C173.213 47.405 173.043 46.66 173.043 45.83ZM179.808 45.86C179.808 45.29 179.688 44.795 179.448 44.375C179.218 43.955 178.913 43.635 178.533 43.415C178.153 43.195 177.743 43.085 177.303 43.085C176.863 43.085 176.453 43.195 176.073 43.415C175.693 43.625 175.383 43.94 175.143 44.36C174.913 44.77 174.798 45.26 174.798 45.83C174.798 46.4 174.913 46.9 175.143 47.33C175.383 47.76 175.693 48.09 176.073 48.32C176.463 48.54 176.873 48.65 177.303 48.65C177.743 48.65 178.153 48.54 178.533 48.32C178.913 48.1 179.218 47.78 179.448 47.36C179.688 46.93 179.808 46.43 179.808 45.86ZM194.759 39.575V50H193.049V42.86L189.869 50H188.684L185.489 42.86V50H183.779V39.575H185.624L189.284 47.75L192.929 39.575H194.759ZM196.437 45.83C196.437 45 196.607 44.265 196.947 43.625C197.297 42.985 197.767 42.49 198.357 42.14C198.957 41.78 199.617 41.6 200.337 41.6C200.987 41.6 201.552 41.73 202.032 41.99C202.522 42.24 202.912 42.555 203.202 42.935V41.735H204.927V50H203.202V48.77C202.912 49.16 202.517 49.485 202.017 49.745C201.517 50.005 200.947 50.135 200.307 50.135C199.597 50.135 198.947 49.955 198.357 49.595C197.767 49.225 197.297 48.715 196.947 48.065C196.607 47.405 196.437 46.66 196.437 45.83ZM203.202 45.86C203.202 45.29 203.082 44.795 202.842 44.375C202.612 43.955 202.307 43.635 201.927 43.415C201.547 43.195 201.137 43.085 200.697 43.085C200.257 43.085 199.847 43.195 199.467 43.415C199.087 43.625 198.777 43.94 198.537 44.36C198.307 44.77 198.192 45.26 198.192 45.83C198.192 46.4 198.307 46.9 198.537 47.33C198.777 47.76 199.087 48.09 199.467 48.32C199.857 48.54 200.267 48.65 200.697 48.65C201.137 48.65 201.547 48.54 201.927 48.32C202.307 48.1 202.612 47.78 202.842 47.36C203.082 46.93 203.202 46.43 203.202 45.86ZM210.173 50.135C209.523 50.135 208.938 50.02 208.418 49.79C207.908 49.55 207.503 49.23 207.203 48.83C206.903 48.42 206.743 47.965 206.723 47.465H208.493C208.523 47.815 208.688 48.11 208.988 48.35C209.298 48.58 209.683 48.695 210.143 48.695C210.623 48.695 210.993 48.605 211.253 48.425C211.523 48.235 211.658 47.995 211.658 47.705C211.658 47.395 211.508 47.165 211.208 47.015C210.918 46.865 210.453 46.7 209.813 46.52C209.193 46.35 208.688 46.185 208.298 46.025C207.908 45.865 207.568 45.62 207.278 45.29C206.998 44.96 206.858 44.525 206.858 43.985C206.858 43.545 206.988 43.145 207.248 42.785C207.508 42.415 207.878 42.125 208.358 41.915C208.848 41.705 209.408 41.6 210.038 41.6C210.978 41.6 211.733 41.84 212.303 42.32C212.883 42.79 213.193 43.435 213.233 44.255H211.523C211.493 43.885 211.343 43.59 211.073 43.37C210.803 43.15 210.438 43.04 209.978 43.04C209.528 43.04 209.183 43.125 208.943 43.295C208.703 43.465 208.583 43.69 208.583 43.97C208.583 44.19 208.663 44.375 208.823 44.525C208.983 44.675 209.178 44.795 209.408 44.885C209.638 44.965 209.978 45.07 210.428 45.2C211.028 45.36 211.518 45.525 211.898 45.695C212.288 45.855 212.623 46.095 212.903 46.415C213.183 46.735 213.328 47.16 213.338 47.69C213.338 48.16 213.208 48.58 212.948 48.95C212.688 49.32 212.318 49.61 211.838 49.82C211.368 50.03 210.813 50.135 210.173 50.135ZM218.456 45.875L222.266 50H219.956L216.896 46.445V50H215.186V38.9H216.896V45.35L219.896 41.735H222.266L218.456 45.875Z" fill="white"/>
<defs>
<filter id="filter0_d_117_31" x="0" y="0" width="281" height="95.958" filterUnits="userSpaceOnUse" color-interpolation-filters="sRGB">
<feFlood flood-opacity="0" result="BackgroundImageFix"/>
<feColorMatrix in="SourceAlpha" type="matrix" values="0 0 0 0 0 0 0 0 0 0 0 0 0 0 0 0 0 0 127 0" result="hardAlpha"/>
<feOffset dy="4"/>
<feGaussianBlur stdDeviation="13"/>
<feColorMatrix type="matrix" values="0 0 0 0 0 0 0 0 0 0 0 0 0 0 0 0 0 0 0.25 0"/>
<feBlend mode="normal" in2="BackgroundImageFix" result="effect1_dropShadow_117_31"/>
<feBlend mode="normal" in="SourceGraphic" in2="effect1_dropShadow_117_31" result="shape"/>
</filter>
</defs>
</svg>
