<svg width="185" height="96" viewBox="0 0 185 96" fill="none" xmlns="http://www.w3.org/2000/svg">
<g filter="url(#filter0_d_117_445)">
<rect x="26" y="22" width="133" height="44" rx="22" fill="#0CC18B"/>
</g>
<path d="M126 44.75H137.5" stroke="white" stroke-width="1.8" stroke-linecap="round" stroke-linejoin="round"/>
<path d="M131.75 39L137.5 44.75L131.75 50.5" stroke="white" stroke-width="1.8" stroke-linecap="round" stroke-linejoin="round"/>
<path d="M57.555 44.765C57.555 43.745 57.79 42.83 58.26 42.02C58.74 41.21 59.385 40.58 60.195 40.13C61.015 39.67 61.91 39.44 62.88 39.44C63.99 39.44 64.975 39.715 65.835 40.265C66.705 40.805 67.335 41.575 67.725 42.575H65.67C65.4 42.025 65.025 41.615 64.545 41.345C64.065 41.075 63.51 40.94 62.88 40.94C62.19 40.94 61.575 41.095 61.035 41.405C60.495 41.715 60.07 42.16 59.76 42.74C59.46 43.32 59.31 43.995 59.31 44.765C59.31 45.535 59.46 46.21 59.76 46.79C60.07 47.37 60.495 47.82 61.035 48.14C61.575 48.45 62.19 48.605 62.88 48.605C63.51 48.605 64.065 48.47 64.545 48.2C65.025 47.93 65.4 47.52 65.67 46.97H67.725C67.335 47.97 66.705 48.74 65.835 49.28C64.975 49.82 63.99 50.09 62.88 50.09C61.9 50.09 61.005 49.865 60.195 49.415C59.385 48.955 58.74 48.32 58.26 47.51C57.79 46.7 57.555 45.785 57.555 44.765ZM71.4366 42.935C71.6866 42.515 72.0166 42.19 72.4266 41.96C72.8466 41.72 73.3416 41.6 73.9116 41.6V43.37H73.4766C72.8066 43.37 72.2966 43.54 71.9466 43.88C71.6066 44.22 71.4366 44.81 71.4366 45.65V50H69.7266V41.735H71.4366V42.935ZM83.0584 45.665C83.0584 45.975 83.0384 46.255 82.9984 46.505H76.6834C76.7334 47.165 76.9784 47.695 77.4184 48.095C77.8584 48.495 78.3984 48.695 79.0384 48.695C79.9584 48.695 80.6084 48.31 80.9884 47.54H82.8334C82.5834 48.3 82.1284 48.925 81.4684 49.415C80.8184 49.895 80.0084 50.135 79.0384 50.135C78.2484 50.135 77.5384 49.96 76.9084 49.61C76.2884 49.25 75.7984 48.75 75.4384 48.11C75.0884 47.46 74.9134 46.71 74.9134 45.86C74.9134 45.01 75.0834 44.265 75.4234 43.625C75.7734 42.975 76.2584 42.475 76.8784 42.125C77.5084 41.775 78.2284 41.6 79.0384 41.6C79.8184 41.6 80.5134 41.77 81.1234 42.11C81.7334 42.45 82.2084 42.93 82.5484 43.55C82.8884 44.16 83.0584 44.865 83.0584 45.665ZM81.2734 45.125C81.2634 44.495 81.0384 43.99 80.5984 43.61C80.1584 43.23 79.6134 43.04 78.9634 43.04C78.3734 43.04 77.8684 43.23 77.4484 43.61C77.0284 43.98 76.7784 44.485 76.6984 45.125H81.2734ZM84.1712 45.83C84.1712 45 84.3412 44.265 84.6812 43.625C85.0312 42.985 85.5012 42.49 86.0912 42.14C86.6912 41.78 87.3512 41.6 88.0712 41.6C88.7212 41.6 89.2862 41.73 89.7662 41.99C90.2562 42.24 90.6462 42.555 90.9362 42.935V41.735H92.6612V50H90.9362V48.77C90.6462 49.16 90.2512 49.485 89.7512 49.745C89.2512 50.005 88.6812 50.135 88.0412 50.135C87.3312 50.135 86.6812 49.955 86.0912 49.595C85.5012 49.225 85.0312 48.715 84.6812 48.065C84.3412 47.405 84.1712 46.66 84.1712 45.83ZM90.9362 45.86C90.9362 45.29 90.8162 44.795 90.5762 44.375C90.3462 43.955 90.0412 43.635 89.6612 43.415C89.2812 43.195 88.8712 43.085 88.4312 43.085C87.9912 43.085 87.5812 43.195 87.2012 43.415C86.8212 43.625 86.5112 43.94 86.2712 44.36C86.0412 44.77 85.9262 45.26 85.9262 45.83C85.9262 46.4 86.0412 46.9 86.2712 47.33C86.5112 47.76 86.8212 48.09 87.2012 48.32C87.5912 48.54 88.0012 48.65 88.4312 48.65C88.8712 48.65 89.2812 48.54 89.6612 48.32C90.0412 48.1 90.3462 47.78 90.5762 47.36C90.8162 46.93 90.9362 46.43 90.9362 45.86ZM96.9022 43.13V47.705C96.9022 48.015 96.9722 48.24 97.1122 48.38C97.2622 48.51 97.5122 48.575 97.8622 48.575H98.9122V50H97.5622C96.7922 50 96.2022 49.82 95.7922 49.46C95.3822 49.1 95.1772 48.515 95.1772 47.705V43.13H94.2022V41.735H95.1772V39.68H96.9022V41.735H98.9122V43.13H96.9022ZM108.063 45.665C108.063 45.975 108.043 46.255 108.003 46.505H101.688C101.738 47.165 101.983 47.695 102.423 48.095C102.863 48.495 103.403 48.695 104.043 48.695C104.963 48.695 105.613 48.31 105.993 47.54H107.838C107.588 48.3 107.133 48.925 106.473 49.415C105.823 49.895 105.013 50.135 104.043 50.135C103.253 50.135 102.543 49.96 101.913 49.61C101.293 49.25 100.803 48.75 100.443 48.11C100.093 47.46 99.9183 46.71 99.9183 45.86C99.9183 45.01 100.088 44.265 100.428 43.625C100.778 42.975 101.263 42.475 101.883 42.125C102.513 41.775 103.233 41.6 104.043 41.6C104.823 41.6 105.518 41.77 106.128 42.11C106.738 42.45 107.213 42.93 107.553 43.55C107.893 44.16 108.063 44.865 108.063 45.665ZM106.278 45.125C106.268 44.495 106.043 43.99 105.603 43.61C105.163 43.23 104.618 43.04 103.968 43.04C103.378 43.04 102.873 43.23 102.453 43.61C102.033 43.98 101.783 44.485 101.703 45.125H106.278Z" fill="white"/>
<defs>
<filter id="filter0_d_117_445" x="0" y="0" width="185" height="96" filterUnits="userSpaceOnUse" color-interpolation-filters="sRGB">
<feFlood flood-opacity="0" result="BackgroundImageFix"/>
<feColorMatrix in="SourceAlpha" type="matrix" values="0 0 0 0 0 0 0 0 0 0 0 0 0 0 0 0 0 0 127 0" result="hardAlpha"/>
<feOffset dy="4"/>
<feGaussianBlur stdDeviation="13"/>
<feColorMatrix type="matrix" values="0 0 0 0 0 0 0 0 0 0 0 0 0 0 0 0 0 0 0.25 0"/>
<feBlend mode="normal" in2="BackgroundImageFix" result="effect1_dropShadow_117_445"/>
<feBlend mode="normal" in="SourceGraphic" in2="effect1_dropShadow_117_445" result="shape"/>
</filter>
</defs>
</svg>
