<svg width="154" height="96" viewBox="0 0 154 96" fill="none" xmlns="http://www.w3.org/2000/svg">
<g filter="url(#filter0_d_117_121)">
<rect x="26" y="22" width="102" height="44" rx="22" fill="#0C21C1"/>
</g>
<path d="M60.555 44.765C60.555 43.745 60.79 42.83 61.26 42.02C61.74 41.21 62.385 40.58 63.195 40.13C64.015 39.67 64.91 39.44 65.88 39.44C66.99 39.44 67.975 39.715 68.835 40.265C69.705 40.805 70.335 41.575 70.725 42.575H68.67C68.4 42.025 68.025 41.615 67.545 41.345C67.065 41.075 66.51 40.94 65.88 40.94C65.19 40.94 64.575 41.095 64.035 41.405C63.495 41.715 63.07 42.16 62.76 42.74C62.46 43.32 62.31 43.995 62.31 44.765C62.31 45.535 62.46 46.21 62.76 46.79C63.07 47.37 63.495 47.82 64.035 48.14C64.575 48.45 65.19 48.605 65.88 48.605C66.51 48.605 67.065 48.47 67.545 48.2C68.025 47.93 68.4 47.52 68.67 46.97H70.725C70.335 47.97 69.705 48.74 68.835 49.28C67.975 49.82 66.99 50.09 65.88 50.09C64.9 50.09 64.005 49.865 63.195 49.415C62.385 48.955 61.74 48.32 61.26 47.51C60.79 46.7 60.555 45.785 60.555 44.765ZM74.4366 42.935C74.6866 42.515 75.0166 42.19 75.4266 41.96C75.8466 41.72 76.3416 41.6 76.9116 41.6V43.37H76.4766C75.8066 43.37 75.2966 43.54 74.9466 43.88C74.6066 44.22 74.4366 44.81 74.4366 45.65V50H72.7266V41.735H74.4366V42.935ZM86.0584 45.665C86.0584 45.975 86.0384 46.255 85.9984 46.505H79.6834C79.7334 47.165 79.9784 47.695 80.4184 48.095C80.8584 48.495 81.3984 48.695 82.0384 48.695C82.9584 48.695 83.6084 48.31 83.9884 47.54H85.8334C85.5834 48.3 85.1284 48.925 84.4684 49.415C83.8184 49.895 83.0084 50.135 82.0384 50.135C81.2484 50.135 80.5384 49.96 79.9084 49.61C79.2884 49.25 78.7984 48.75 78.4384 48.11C78.0884 47.46 77.9134 46.71 77.9134 45.86C77.9134 45.01 78.0834 44.265 78.4234 43.625C78.7734 42.975 79.2584 42.475 79.8784 42.125C80.5084 41.775 81.2284 41.6 82.0384 41.6C82.8184 41.6 83.5134 41.77 84.1234 42.11C84.7334 42.45 85.2084 42.93 85.5484 43.55C85.8884 44.16 86.0584 44.865 86.0584 45.665ZM84.2734 45.125C84.2634 44.495 84.0384 43.99 83.5984 43.61C83.1584 43.23 82.6134 43.04 81.9634 43.04C81.3734 43.04 80.8684 43.23 80.4484 43.61C80.0284 43.98 79.7784 44.485 79.6984 45.125H84.2734ZM87.1712 45.83C87.1712 45 87.3412 44.265 87.6812 43.625C88.0312 42.985 88.5012 42.49 89.0912 42.14C89.6912 41.78 90.3512 41.6 91.0712 41.6C91.7212 41.6 92.2862 41.73 92.7662 41.99C93.2562 42.24 93.6462 42.555 93.9362 42.935V41.735H95.6612V50H93.9362V48.77C93.6462 49.16 93.2512 49.485 92.7512 49.745C92.2512 50.005 91.6812 50.135 91.0412 50.135C90.3312 50.135 89.6812 49.955 89.0912 49.595C88.5012 49.225 88.0312 48.715 87.6812 48.065C87.3412 47.405 87.1712 46.66 87.1712 45.83ZM93.9362 45.86C93.9362 45.29 93.8162 44.795 93.5762 44.375C93.3462 43.955 93.0412 43.635 92.6612 43.415C92.2812 43.195 91.8712 43.085 91.4312 43.085C90.9912 43.085 90.5812 43.195 90.2012 43.415C89.8212 43.625 89.5112 43.94 89.2712 44.36C89.0412 44.77 88.9262 45.26 88.9262 45.83C88.9262 46.4 89.0412 46.9 89.2712 47.33C89.5112 47.76 89.8212 48.09 90.2012 48.32C90.5912 48.54 91.0012 48.65 91.4312 48.65C91.8712 48.65 92.2812 48.54 92.6612 48.32C93.0412 48.1 93.3462 47.78 93.5762 47.36C93.8162 46.93 93.9362 46.43 93.9362 45.86ZM99.9022 43.13V47.705C99.9022 48.015 99.9722 48.24 100.112 48.38C100.262 48.51 100.512 48.575 100.862 48.575H101.912V50H100.562C99.7922 50 99.2022 49.82 98.7922 49.46C98.3822 49.1 98.1772 48.515 98.1772 47.705V43.13H97.2022V41.735H98.1772V39.68H99.9022V41.735H101.912V43.13H99.9022ZM111.063 45.665C111.063 45.975 111.043 46.255 111.003 46.505H104.688C104.738 47.165 104.983 47.695 105.423 48.095C105.863 48.495 106.403 48.695 107.043 48.695C107.963 48.695 108.613 48.31 108.993 47.54H110.838C110.588 48.3 110.133 48.925 109.473 49.415C108.823 49.895 108.013 50.135 107.043 50.135C106.253 50.135 105.543 49.96 104.913 49.61C104.293 49.25 103.803 48.75 103.443 48.11C103.093 47.46 102.918 46.71 102.918 45.86C102.918 45.01 103.088 44.265 103.428 43.625C103.778 42.975 104.263 42.475 104.883 42.125C105.513 41.775 106.233 41.6 107.043 41.6C107.823 41.6 108.518 41.77 109.128 42.11C109.738 42.45 110.213 42.93 110.553 43.55C110.893 44.16 111.063 44.865 111.063 45.665ZM109.278 45.125C109.268 44.495 109.043 43.99 108.603 43.61C108.163 43.23 107.618 43.04 106.968 43.04C106.378 43.04 105.873 43.23 105.453 43.61C105.033 43.98 104.783 44.485 104.703 45.125H109.278Z" fill="white"/>
<path d="M46.5 39V50" stroke="white" stroke-width="1.5" stroke-linecap="round" stroke-linejoin="round"/>
<path d="M41 44.5H52" stroke="white" stroke-width="1.5" stroke-linecap="round" stroke-linejoin="round"/>
<defs>
<filter id="filter0_d_117_121" x="0" y="0" width="154" height="96" filterUnits="userSpaceOnUse" color-interpolation-filters="sRGB">
<feFlood flood-opacity="0" result="BackgroundImageFix"/>
<feColorMatrix in="SourceAlpha" type="matrix" values="0 0 0 0 0 0 0 0 0 0 0 0 0 0 0 0 0 0 127 0" result="hardAlpha"/>
<feOffset dy="4"/>
<feGaussianBlur stdDeviation="13"/>
<feColorMatrix type="matrix" values="0 0 0 0 0 0 0 0 0 0 0 0 0 0 0 0 0 0 0.25 0"/>
<feBlend mode="normal" in2="BackgroundImageFix" result="effect1_dropShadow_117_121"/>
<feBlend mode="normal" in="SourceGraphic" in2="effect1_dropShadow_117_121" result="shape"/>
</filter>
</defs>
</svg>
