<svg width="234" height="38" viewBox="0 0 234 38" fill="none" xmlns="http://www.w3.org/2000/svg">
<path d="M7.28072 4.68C7.28072 5.21 7.15572 5.71 6.90572 6.18C6.65572 6.65 6.25572 7.035 5.70572 7.335C5.15572 7.625 4.45072 7.77 3.59072 7.77H1.70072V12H-0.0092773V1.575H3.59072C4.39072 1.575 5.06572 1.715 5.61572 1.995C6.17572 2.265 6.59072 2.635 6.86072 3.105C7.14072 3.575 7.28072 4.1 7.28072 4.68ZM3.59072 6.375C4.24072 6.375 4.72572 6.23 5.04572 5.94C5.36572 5.64 5.52572 5.22 5.52572 4.68C5.52572 3.54 4.88072 2.97 3.59072 2.97H1.70072V6.375H3.59072ZM10.6216 0.9V12H8.91162V0.9H10.6216ZM20.4417 7.665C20.4417 7.975 20.4217 8.255 20.3817 8.505H14.0667C14.1167 9.165 14.3617 9.695 14.8017 10.095C15.2417 10.495 15.7817 10.695 16.4217 10.695C17.3417 10.695 17.9917 10.31 18.3717 9.54H20.2167C19.9667 10.3 19.5117 10.925 18.8517 11.415C18.2017 11.895 17.3917 12.135 16.4217 12.135C15.6317 12.135 14.9217 11.96 14.2917 11.61C13.6717 11.25 13.1817 10.75 12.8217 10.11C12.4717 9.46 12.2967 8.71 12.2967 7.86C12.2967 7.01 12.4667 6.265 12.8067 5.625C13.1567 4.975 13.6417 4.475 14.2617 4.125C14.8917 3.775 15.6117 3.6 16.4217 3.6C17.2017 3.6 17.8967 3.77 18.5067 4.11C19.1167 4.45 19.5917 4.93 19.9317 5.55C20.2717 6.16 20.4417 6.865 20.4417 7.665ZM18.6567 7.125C18.6467 6.495 18.4217 5.99 17.9817 5.61C17.5417 5.23 16.9967 5.04 16.3467 5.04C15.7567 5.04 15.2517 5.23 14.8317 5.61C14.4117 5.98 14.1617 6.485 14.0817 7.125H18.6567ZM21.5545 7.83C21.5545 7 21.7245 6.265 22.0645 5.625C22.4145 4.985 22.8845 4.49 23.4745 4.14C24.0745 3.78 24.7345 3.6 25.4545 3.6C26.1045 3.6 26.6695 3.73 27.1495 3.99C27.6395 4.24 28.0295 4.555 28.3195 4.935V3.735H30.0445V12H28.3195V10.77C28.0295 11.16 27.6345 11.485 27.1345 11.745C26.6345 12.005 26.0645 12.135 25.4245 12.135C24.7145 12.135 24.0645 11.955 23.4745 11.595C22.8845 11.225 22.4145 10.715 22.0645 10.065C21.7245 9.405 21.5545 8.66 21.5545 7.83ZM28.3195 7.86C28.3195 7.29 28.1995 6.795 27.9595 6.375C27.7295 5.955 27.4245 5.635 27.0445 5.415C26.6645 5.195 26.2545 5.085 25.8145 5.085C25.3745 5.085 24.9645 5.195 24.5845 5.415C24.2045 5.625 23.8945 5.94 23.6545 6.36C23.4245 6.77 23.3095 7.26 23.3095 7.83C23.3095 8.4 23.4245 8.9 23.6545 9.33C23.8945 9.76 24.2045 10.09 24.5845 10.32C24.9745 10.54 25.3845 10.65 25.8145 10.65C26.2545 10.65 26.6645 10.54 27.0445 10.32C27.4245 10.1 27.7295 9.78 27.9595 9.36C28.1995 8.93 28.3195 8.43 28.3195 7.86ZM35.2905 12.135C34.6405 12.135 34.0555 12.02 33.5355 11.79C33.0255 11.55 32.6205 11.23 32.3205 10.83C32.0205 10.42 31.8605 9.965 31.8405 9.465H33.6105C33.6405 9.815 33.8055 10.11 34.1055 10.35C34.4155 10.58 34.8005 10.695 35.2605 10.695C35.7405 10.695 36.1105 10.605 36.3705 10.425C36.6405 10.235 36.7755 9.995 36.7755 9.705C36.7755 9.395 36.6255 9.165 36.3255 9.015C36.0355 8.865 35.5705 8.7 34.9305 8.52C34.3105 8.35 33.8055 8.185 33.4155 8.025C33.0255 7.865 32.6855 7.62 32.3955 7.29C32.1155 6.96 31.9755 6.525 31.9755 5.985C31.9755 5.545 32.1055 5.145 32.3655 4.785C32.6255 4.415 32.9955 4.125 33.4755 3.915C33.9655 3.705 34.5255 3.6 35.1555 3.6C36.0955 3.6 36.8505 3.84 37.4205 4.32C38.0005 4.79 38.3105 5.435 38.3505 6.255H36.6405C36.6105 5.885 36.4605 5.59 36.1905 5.37C35.9205 5.15 35.5555 5.04 35.0955 5.04C34.6455 5.04 34.3005 5.125 34.0605 5.295C33.8205 5.465 33.7005 5.69 33.7005 5.97C33.7005 6.19 33.7805 6.375 33.9405 6.525C34.1005 6.675 34.2955 6.795 34.5255 6.885C34.7555 6.965 35.0955 7.07 35.5455 7.2C36.1455 7.36 36.6355 7.525 37.0155 7.695C37.4055 7.855 37.7405 8.095 38.0205 8.415C38.3005 8.735 38.4455 9.16 38.4555 9.69C38.4555 10.16 38.3255 10.58 38.0655 10.95C37.8055 11.32 37.4355 11.61 36.9555 11.82C36.4855 12.03 35.9305 12.135 35.2905 12.135ZM47.8782 7.665C47.8782 7.975 47.8582 8.255 47.8182 8.505H41.5032C41.5532 9.165 41.7982 9.695 42.2382 10.095C42.6782 10.495 43.2182 10.695 43.8582 10.695C44.7782 10.695 45.4282 10.31 45.8082 9.54H47.6532C47.4032 10.3 46.9482 10.925 46.2882 11.415C45.6382 11.895 44.8282 12.135 43.8582 12.135C43.0682 12.135 42.3582 11.96 41.7282 11.61C41.1082 11.25 40.6182 10.75 40.2582 10.11C39.9082 9.46 39.7332 8.71 39.7332 7.86C39.7332 7.01 39.9032 6.265 40.2432 5.625C40.5932 4.975 41.0782 4.475 41.6982 4.125C42.3282 3.775 43.0482 3.6 43.8582 3.6C44.6382 3.6 45.3332 3.77 45.9432 4.11C46.5532 4.45 47.0282 4.93 47.3682 5.55C47.7082 6.16 47.8782 6.865 47.8782 7.665ZM46.0932 7.125C46.0832 6.495 45.8582 5.99 45.4182 5.61C44.9782 5.23 44.4332 5.04 43.7832 5.04C43.1932 5.04 42.6882 5.23 42.2682 5.61C41.8482 5.98 41.5982 6.485 41.5182 7.125H46.0932ZM52.8875 7.86C52.8875 7.01 53.0575 6.265 53.3975 5.625C53.7475 4.975 54.2275 4.475 54.8375 4.125C55.4475 3.775 56.1475 3.6 56.9375 3.6C57.9375 3.6 58.7625 3.84 59.4125 4.32C60.0725 4.79 60.5175 5.465 60.7475 6.345H58.9025C58.7525 5.935 58.5125 5.615 58.1825 5.385C57.8525 5.155 57.4375 5.04 56.9375 5.04C56.2375 5.04 55.6775 5.29 55.2575 5.79C54.8475 6.28 54.6425 6.97 54.6425 7.86C54.6425 8.75 54.8475 9.445 55.2575 9.945C55.6775 10.445 56.2375 10.695 56.9375 10.695C57.9275 10.695 58.5825 10.26 58.9025 9.39H60.7475C60.5075 10.23 60.0575 10.9 59.3975 11.4C58.7375 11.89 57.9175 12.135 56.9375 12.135C56.1475 12.135 55.4475 11.96 54.8375 11.61C54.2275 11.25 53.7475 10.75 53.3975 10.11C53.0575 9.46 52.8875 8.71 52.8875 7.86ZM66.0367 12.135C65.2567 12.135 64.5517 11.96 63.9217 11.61C63.2917 11.25 62.7967 10.75 62.4367 10.11C62.0767 9.46 61.8967 8.71 61.8967 7.86C61.8967 7.02 62.0817 6.275 62.4517 5.625C62.8217 4.975 63.3267 4.475 63.9667 4.125C64.6067 3.775 65.3217 3.6 66.1117 3.6C66.9017 3.6 67.6167 3.775 68.2567 4.125C68.8967 4.475 69.4017 4.975 69.7717 5.625C70.1417 6.275 70.3267 7.02 70.3267 7.86C70.3267 8.7 70.1367 9.445 69.7567 10.095C69.3767 10.745 68.8567 11.25 68.1967 11.61C67.5467 11.96 66.8267 12.135 66.0367 12.135ZM66.0367 10.65C66.4767 10.65 66.8867 10.545 67.2667 10.335C67.6567 10.125 67.9717 9.81 68.2117 9.39C68.4517 8.97 68.5717 8.46 68.5717 7.86C68.5717 7.26 68.4567 6.755 68.2267 6.345C67.9967 5.925 67.6917 5.61 67.3117 5.4C66.9317 5.19 66.5217 5.085 66.0817 5.085C65.6417 5.085 65.2317 5.19 64.8517 5.4C64.4817 5.61 64.1867 5.925 63.9667 6.345C63.7467 6.755 63.6367 7.26 63.6367 7.86C63.6367 8.75 63.8617 9.44 64.3117 9.93C64.7717 10.41 65.3467 10.65 66.0367 10.65ZM76.1871 3.6C76.8371 3.6 77.4171 3.735 77.9271 4.005C78.4471 4.275 78.8521 4.675 79.1421 5.205C79.4321 5.735 79.5771 6.375 79.5771 7.125V12H77.8821V7.38C77.8821 6.64 77.6971 6.075 77.3271 5.685C76.9571 5.285 76.4521 5.085 75.8121 5.085C75.1721 5.085 74.6621 5.285 74.2821 5.685C73.9121 6.075 73.7271 6.64 73.7271 7.38V12H72.0171V3.735H73.7271V4.68C74.0071 4.34 74.3621 4.075 74.7921 3.885C75.2321 3.695 75.6971 3.6 76.1871 3.6ZM85.9283 3.6C86.5783 3.6 87.1583 3.735 87.6683 4.005C88.1883 4.275 88.5933 4.675 88.8833 5.205C89.1733 5.735 89.3183 6.375 89.3183 7.125V12H87.6233V7.38C87.6233 6.64 87.4383 6.075 87.0683 5.685C86.6983 5.285 86.1933 5.085 85.5533 5.085C84.9133 5.085 84.4033 5.285 84.0233 5.685C83.6533 6.075 83.4683 6.64 83.4683 7.38V12H81.7583V3.735H83.4683V4.68C83.7483 4.34 84.1033 4.075 84.5333 3.885C84.9733 3.695 85.4383 3.6 85.9283 3.6ZM99.0745 7.665C99.0745 7.975 99.0545 8.255 99.0145 8.505H92.6995C92.7495 9.165 92.9945 9.695 93.4345 10.095C93.8745 10.495 94.4145 10.695 95.0545 10.695C95.9745 10.695 96.6245 10.31 97.0045 9.54H98.8495C98.5995 10.3 98.1445 10.925 97.4845 11.415C96.8345 11.895 96.0245 12.135 95.0545 12.135C94.2645 12.135 93.5545 11.96 92.9245 11.61C92.3045 11.25 91.8145 10.75 91.4545 10.11C91.1045 9.46 90.9295 8.71 90.9295 7.86C90.9295 7.01 91.0995 6.265 91.4395 5.625C91.7895 4.975 92.2745 4.475 92.8945 4.125C93.5245 3.775 94.2445 3.6 95.0545 3.6C95.8345 3.6 96.5295 3.77 97.1395 4.11C97.7495 4.45 98.2245 4.93 98.5645 5.55C98.9045 6.16 99.0745 6.865 99.0745 7.665ZM97.2895 7.125C97.2795 6.495 97.0545 5.99 96.6145 5.61C96.1745 5.23 95.6295 5.04 94.9795 5.04C94.3895 5.04 93.8845 5.23 93.4645 5.61C93.0445 5.98 92.7945 6.485 92.7145 7.125H97.2895ZM100.187 7.86C100.187 7.01 100.357 6.265 100.697 5.625C101.047 4.975 101.527 4.475 102.137 4.125C102.747 3.775 103.447 3.6 104.237 3.6C105.237 3.6 106.062 3.84 106.712 4.32C107.372 4.79 107.817 5.465 108.047 6.345H106.202C106.052 5.935 105.812 5.615 105.482 5.385C105.152 5.155 104.737 5.04 104.237 5.04C103.537 5.04 102.977 5.29 102.557 5.79C102.147 6.28 101.942 6.97 101.942 7.86C101.942 8.75 102.147 9.445 102.557 9.945C102.977 10.445 103.537 10.695 104.237 10.695C105.227 10.695 105.882 10.26 106.202 9.39H108.047C107.807 10.23 107.357 10.9 106.697 11.4C106.037 11.89 105.217 12.135 104.237 12.135C103.447 12.135 102.747 11.96 102.137 11.61C101.527 11.25 101.047 10.75 100.697 10.11C100.357 9.46 100.187 8.71 100.187 7.86ZM111.746 5.13V9.705C111.746 10.015 111.816 10.24 111.956 10.38C112.106 10.51 112.356 10.575 112.706 10.575H113.756V12H112.406C111.636 12 111.046 11.82 110.636 11.46C110.226 11.1 110.021 10.515 110.021 9.705V5.13H109.046V3.735H110.021V1.68H111.746V3.735H113.756V5.13H111.746ZM121.224 5.13V9.705C121.224 10.015 121.294 10.24 121.434 10.38C121.584 10.51 121.834 10.575 122.184 10.575H123.234V12H121.884C121.114 12 120.524 11.82 120.114 11.46C119.704 11.1 119.499 10.515 119.499 9.705V5.13H118.524V3.735H119.499V1.68H121.224V3.735H123.234V5.13H121.224ZM128.395 12.135C127.615 12.135 126.91 11.96 126.28 11.61C125.65 11.25 125.155 10.75 124.795 10.11C124.435 9.46 124.255 8.71 124.255 7.86C124.255 7.02 124.44 6.275 124.81 5.625C125.18 4.975 125.685 4.475 126.325 4.125C126.965 3.775 127.68 3.6 128.47 3.6C129.26 3.6 129.975 3.775 130.615 4.125C131.255 4.475 131.76 4.975 132.13 5.625C132.5 6.275 132.685 7.02 132.685 7.86C132.685 8.7 132.495 9.445 132.115 10.095C131.735 10.745 131.215 11.25 130.555 11.61C129.905 11.96 129.185 12.135 128.395 12.135ZM128.395 10.65C128.835 10.65 129.245 10.545 129.625 10.335C130.015 10.125 130.33 9.81 130.57 9.39C130.81 8.97 130.93 8.46 130.93 7.86C130.93 7.26 130.815 6.755 130.585 6.345C130.355 5.925 130.05 5.61 129.67 5.4C129.29 5.19 128.88 5.085 128.44 5.085C128 5.085 127.59 5.19 127.21 5.4C126.84 5.61 126.545 5.925 126.325 6.345C126.105 6.755 125.995 7.26 125.995 7.86C125.995 8.75 126.22 9.44 126.67 9.93C127.13 10.41 127.705 10.65 128.395 10.65ZM149.252 1.575V12H147.542V4.86L144.362 12H143.177L139.982 4.86V12H138.272V1.575H140.117L143.777 9.75L147.422 1.575H149.252ZM159.075 7.665C159.075 7.975 159.055 8.255 159.015 8.505H152.7C152.75 9.165 152.995 9.695 153.435 10.095C153.875 10.495 154.415 10.695 155.055 10.695C155.975 10.695 156.625 10.31 157.005 9.54H158.85C158.6 10.3 158.145 10.925 157.485 11.415C156.835 11.895 156.025 12.135 155.055 12.135C154.265 12.135 153.555 11.96 152.925 11.61C152.305 11.25 151.815 10.75 151.455 10.11C151.105 9.46 150.93 8.71 150.93 7.86C150.93 7.01 151.1 6.265 151.44 5.625C151.79 4.975 152.275 4.475 152.895 4.125C153.525 3.775 154.245 3.6 155.055 3.6C155.835 3.6 156.53 3.77 157.14 4.11C157.75 4.45 158.225 4.93 158.565 5.55C158.905 6.16 159.075 6.865 159.075 7.665ZM157.29 7.125C157.28 6.495 157.055 5.99 156.615 5.61C156.175 5.23 155.63 5.04 154.98 5.04C154.39 5.04 153.885 5.23 153.465 5.61C153.045 5.98 152.795 6.485 152.715 7.125H157.29ZM162.752 5.13V9.705C162.752 10.015 162.822 10.24 162.962 10.38C163.112 10.51 163.362 10.575 163.712 10.575H164.762V12H163.412C162.642 12 162.052 11.82 161.642 11.46C161.232 11.1 161.027 10.515 161.027 9.705V5.13H160.052V3.735H161.027V1.68H162.752V3.735H164.762V5.13H162.752ZM165.768 7.83C165.768 7 165.938 6.265 166.278 5.625C166.628 4.985 167.098 4.49 167.688 4.14C168.288 3.78 168.948 3.6 169.668 3.6C170.318 3.6 170.883 3.73 171.363 3.99C171.853 4.24 172.243 4.555 172.533 4.935V3.735H174.258V12H172.533V10.77C172.243 11.16 171.848 11.485 171.348 11.745C170.848 12.005 170.278 12.135 169.638 12.135C168.928 12.135 168.278 11.955 167.688 11.595C167.098 11.225 166.628 10.715 166.278 10.065C165.938 9.405 165.768 8.66 165.768 7.83ZM172.533 7.86C172.533 7.29 172.413 6.795 172.173 6.375C171.943 5.955 171.638 5.635 171.258 5.415C170.878 5.195 170.468 5.085 170.028 5.085C169.588 5.085 169.178 5.195 168.798 5.415C168.418 5.625 168.108 5.94 167.868 6.36C167.638 6.77 167.523 7.26 167.523 7.83C167.523 8.4 167.638 8.9 167.868 9.33C168.108 9.76 168.418 10.09 168.798 10.32C169.188 10.54 169.598 10.65 170.028 10.65C170.468 10.65 170.878 10.54 171.258 10.32C171.638 10.1 171.943 9.78 172.173 9.36C172.413 8.93 172.533 8.43 172.533 7.86ZM187.484 1.575V12H185.774V4.86L182.594 12H181.409L178.214 4.86V12H176.504V1.575H178.349L182.009 9.75L185.654 1.575H187.484ZM189.162 7.83C189.162 7 189.332 6.265 189.672 5.625C190.022 4.985 190.492 4.49 191.082 4.14C191.682 3.78 192.342 3.6 193.062 3.6C193.712 3.6 194.277 3.73 194.757 3.99C195.247 4.24 195.637 4.555 195.927 4.935V3.735H197.652V12H195.927V10.77C195.637 11.16 195.242 11.485 194.742 11.745C194.242 12.005 193.672 12.135 193.032 12.135C192.322 12.135 191.672 11.955 191.082 11.595C190.492 11.225 190.022 10.715 189.672 10.065C189.332 9.405 189.162 8.66 189.162 7.83ZM195.927 7.86C195.927 7.29 195.807 6.795 195.567 6.375C195.337 5.955 195.032 5.635 194.652 5.415C194.272 5.195 193.862 5.085 193.422 5.085C192.982 5.085 192.572 5.195 192.192 5.415C191.812 5.625 191.502 5.94 191.262 6.36C191.032 6.77 190.917 7.26 190.917 7.83C190.917 8.4 191.032 8.9 191.262 9.33C191.502 9.76 191.812 10.09 192.192 10.32C192.582 10.54 192.992 10.65 193.422 10.65C193.862 10.65 194.272 10.54 194.652 10.32C195.032 10.1 195.337 9.78 195.567 9.36C195.807 8.93 195.927 8.43 195.927 7.86ZM202.898 12.135C202.248 12.135 201.663 12.02 201.143 11.79C200.633 11.55 200.228 11.23 199.928 10.83C199.628 10.42 199.468 9.965 199.448 9.465H201.218C201.248 9.815 201.413 10.11 201.713 10.35C202.023 10.58 202.408 10.695 202.868 10.695C203.348 10.695 203.718 10.605 203.978 10.425C204.248 10.235 204.383 9.995 204.383 9.705C204.383 9.395 204.233 9.165 203.933 9.015C203.643 8.865 203.178 8.7 202.538 8.52C201.918 8.35 201.413 8.185 201.023 8.025C200.633 7.865 200.293 7.62 200.003 7.29C199.723 6.96 199.583 6.525 199.583 5.985C199.583 5.545 199.713 5.145 199.973 4.785C200.233 4.415 200.603 4.125 201.083 3.915C201.573 3.705 202.133 3.6 202.763 3.6C203.703 3.6 204.458 3.84 205.028 4.32C205.608 4.79 205.918 5.435 205.958 6.255H204.248C204.218 5.885 204.068 5.59 203.798 5.37C203.528 5.15 203.163 5.04 202.703 5.04C202.253 5.04 201.908 5.125 201.668 5.295C201.428 5.465 201.308 5.69 201.308 5.97C201.308 6.19 201.388 6.375 201.548 6.525C201.708 6.675 201.903 6.795 202.133 6.885C202.363 6.965 202.703 7.07 203.153 7.2C203.753 7.36 204.243 7.525 204.623 7.695C205.013 7.855 205.348 8.095 205.628 8.415C205.908 8.735 206.053 9.16 206.063 9.69C206.063 10.16 205.933 10.58 205.673 10.95C205.413 11.32 205.043 11.61 204.563 11.82C204.093 12.03 203.538 12.135 202.898 12.135ZM211.181 7.875L214.991 12H212.681L209.621 8.445V12H207.911V0.9H209.621V7.35L212.621 3.735H214.991L211.181 7.875ZM222.108 5.13V9.705C222.108 10.015 222.178 10.24 222.318 10.38C222.468 10.51 222.718 10.575 223.068 10.575H224.118V12H222.768C221.998 12 221.408 11.82 220.998 11.46C220.588 11.1 220.383 10.515 220.383 9.705V5.13H219.408V3.735H220.383V1.68H222.108V3.735H224.118V5.13H222.108ZM229.279 12.135C228.499 12.135 227.794 11.96 227.164 11.61C226.534 11.25 226.039 10.75 225.679 10.11C225.319 9.46 225.139 8.71 225.139 7.86C225.139 7.02 225.324 6.275 225.694 5.625C226.064 4.975 226.569 4.475 227.209 4.125C227.849 3.775 228.564 3.6 229.354 3.6C230.144 3.6 230.859 3.775 231.499 4.125C232.139 4.475 232.644 4.975 233.014 5.625C233.384 6.275 233.569 7.02 233.569 7.86C233.569 8.7 233.379 9.445 232.999 10.095C232.619 10.745 232.099 11.25 231.439 11.61C230.789 11.96 230.069 12.135 229.279 12.135ZM229.279 10.65C229.719 10.65 230.129 10.545 230.509 10.335C230.899 10.125 231.214 9.81 231.454 9.39C231.694 8.97 231.814 8.46 231.814 7.86C231.814 7.26 231.699 6.755 231.469 6.345C231.239 5.925 230.934 5.61 230.554 5.4C230.174 5.19 229.764 5.085 229.324 5.085C228.884 5.085 228.474 5.19 228.094 5.4C227.724 5.61 227.429 5.925 227.209 6.345C226.989 6.755 226.879 7.26 226.879 7.86C226.879 8.75 227.104 9.44 227.554 9.93C228.014 10.41 228.589 10.65 229.279 10.65ZM29.8459 33.47L32.1859 26.735H34.0009L30.8509 35H28.8109L25.6759 26.735H27.5059L29.8459 33.47ZM36.1635 25.64C35.8535 25.64 35.5935 25.535 35.3835 25.325C35.1735 25.115 35.0685 24.855 35.0685 24.545C35.0685 24.235 35.1735 23.975 35.3835 23.765C35.5935 23.555 35.8535 23.45 36.1635 23.45C36.4635 23.45 36.7185 23.555 36.9285 23.765C37.1385 23.975 37.2435 24.235 37.2435 24.545C37.2435 24.855 37.1385 25.115 36.9285 25.325C36.7185 25.535 36.4635 25.64 36.1635 25.64ZM37.0035 26.735V35H35.2935V26.735H37.0035ZM46.8235 30.665C46.8235 30.975 46.8035 31.255 46.7635 31.505H40.4485C40.4985 32.165 40.7435 32.695 41.1835 33.095C41.6235 33.495 42.1635 33.695 42.8035 33.695C43.7235 33.695 44.3735 33.31 44.7535 32.54H46.5985C46.3485 33.3 45.8935 33.925 45.2335 34.415C44.5835 34.895 43.7735 35.135 42.8035 35.135C42.0135 35.135 41.3035 34.96 40.6735 34.61C40.0535 34.25 39.5635 33.75 39.2035 33.11C38.8535 32.46 38.6785 31.71 38.6785 30.86C38.6785 30.01 38.8485 29.265 39.1885 28.625C39.5385 27.975 40.0235 27.475 40.6435 27.125C41.2735 26.775 41.9935 26.6 42.8035 26.6C43.5835 26.6 44.2785 26.77 44.8885 27.11C45.4985 27.45 45.9735 27.93 46.3135 28.55C46.6535 29.16 46.8235 29.865 46.8235 30.665ZM45.0385 30.125C45.0285 29.495 44.8035 28.99 44.3635 28.61C43.9235 28.23 43.3785 28.04 42.7285 28.04C42.1385 28.04 41.6335 28.23 41.2135 28.61C40.7935 28.98 40.5435 29.485 40.4635 30.125H45.0385ZM59.6063 26.735L57.0413 35H55.2413L53.5763 28.895L51.9113 35H50.1113L47.5313 26.735H49.2713L50.9963 33.38L52.7513 26.735H54.5363L56.2163 33.35L57.9263 26.735H59.6063ZM66.4343 20.84L62.3543 37.625H60.6743L64.7393 20.84H66.4343ZM68.0194 30.86C68.0194 30.01 68.1894 29.265 68.5294 28.625C68.8794 27.975 69.3594 27.475 69.9694 27.125C70.5794 26.775 71.2794 26.6 72.0694 26.6C73.0694 26.6 73.8944 26.84 74.5444 27.32C75.2044 27.79 75.6494 28.465 75.8794 29.345H74.0344C73.8844 28.935 73.6444 28.615 73.3144 28.385C72.9844 28.155 72.5694 28.04 72.0694 28.04C71.3694 28.04 70.8094 28.29 70.3894 28.79C69.9794 29.28 69.7744 29.97 69.7744 30.86C69.7744 31.75 69.9794 32.445 70.3894 32.945C70.8094 33.445 71.3694 33.695 72.0694 33.695C73.0594 33.695 73.7144 33.26 74.0344 32.39H75.8794C75.6394 33.23 75.1894 33.9 74.5294 34.4C73.8694 34.89 73.0494 35.135 72.0694 35.135C71.2794 35.135 70.5794 34.96 69.9694 34.61C69.3594 34.25 68.8794 33.75 68.5294 33.11C68.1894 32.46 68.0194 31.71 68.0194 30.86ZM79.2935 27.935C79.5435 27.515 79.8735 27.19 80.2835 26.96C80.7035 26.72 81.1985 26.6 81.7685 26.6V28.37H81.3335C80.6635 28.37 80.1535 28.54 79.8035 28.88C79.4635 29.22 79.2935 29.81 79.2935 30.65V35H77.5835V26.735H79.2935V27.935ZM90.9153 30.665C90.9153 30.975 90.8953 31.255 90.8553 31.505H84.5403C84.5903 32.165 84.8353 32.695 85.2753 33.095C85.7153 33.495 86.2553 33.695 86.8953 33.695C87.8153 33.695 88.4653 33.31 88.8453 32.54H90.6903C90.4403 33.3 89.9853 33.925 89.3253 34.415C88.6753 34.895 87.8653 35.135 86.8953 35.135C86.1053 35.135 85.3953 34.96 84.7653 34.61C84.1453 34.25 83.6553 33.75 83.2953 33.11C82.9453 32.46 82.7703 31.71 82.7703 30.86C82.7703 30.01 82.9403 29.265 83.2803 28.625C83.6303 27.975 84.1153 27.475 84.7353 27.125C85.3653 26.775 86.0853 26.6 86.8953 26.6C87.6753 26.6 88.3703 26.77 88.9803 27.11C89.5903 27.45 90.0653 27.93 90.4053 28.55C90.7453 29.16 90.9153 29.865 90.9153 30.665ZM89.1303 30.125C89.1203 29.495 88.8953 28.99 88.4553 28.61C88.0153 28.23 87.4703 28.04 86.8203 28.04C86.2303 28.04 85.7253 28.23 85.3053 28.61C84.8853 28.98 84.6353 29.485 84.5553 30.125H89.1303ZM92.0281 30.83C92.0281 30 92.1981 29.265 92.5381 28.625C92.8881 27.985 93.3581 27.49 93.9481 27.14C94.5481 26.78 95.2081 26.6 95.9281 26.6C96.5781 26.6 97.1431 26.73 97.6231 26.99C98.1131 27.24 98.5031 27.555 98.7931 27.935V26.735H100.518V35H98.7931V33.77C98.5031 34.16 98.1081 34.485 97.6081 34.745C97.1081 35.005 96.5381 35.135 95.8981 35.135C95.1881 35.135 94.5381 34.955 93.9481 34.595C93.3581 34.225 92.8881 33.715 92.5381 33.065C92.1981 32.405 92.0281 31.66 92.0281 30.83ZM98.7931 30.86C98.7931 30.29 98.6731 29.795 98.4331 29.375C98.2031 28.955 97.8981 28.635 97.5181 28.415C97.1381 28.195 96.7281 28.085 96.2881 28.085C95.8481 28.085 95.4381 28.195 95.0581 28.415C94.6781 28.625 94.3681 28.94 94.1281 29.36C93.8981 29.77 93.7831 30.26 93.7831 30.83C93.7831 31.4 93.8981 31.9 94.1281 32.33C94.3681 32.76 94.6781 33.09 95.0581 33.32C95.4481 33.54 95.8581 33.65 96.2881 33.65C96.7281 33.65 97.1381 33.54 97.5181 33.32C97.8981 33.1 98.2031 32.78 98.4331 32.36C98.6731 31.93 98.7931 31.43 98.7931 30.86ZM104.759 28.13V32.705C104.759 33.015 104.829 33.24 104.969 33.38C105.119 33.51 105.369 33.575 105.719 33.575H106.769V35H105.419C104.649 35 104.059 34.82 103.649 34.46C103.239 34.1 103.034 33.515 103.034 32.705V28.13H102.059V26.735H103.034V24.68H104.759V26.735H106.769V28.13H104.759ZM115.92 30.665C115.92 30.975 115.9 31.255 115.86 31.505H109.545C109.595 32.165 109.84 32.695 110.28 33.095C110.72 33.495 111.26 33.695 111.9 33.695C112.82 33.695 113.47 33.31 113.85 32.54H115.695C115.445 33.3 114.99 33.925 114.33 34.415C113.68 34.895 112.87 35.135 111.9 35.135C111.11 35.135 110.4 34.96 109.77 34.61C109.15 34.25 108.66 33.75 108.3 33.11C107.95 32.46 107.775 31.71 107.775 30.86C107.775 30.01 107.945 29.265 108.285 28.625C108.635 27.975 109.12 27.475 109.74 27.125C110.37 26.775 111.09 26.6 111.9 26.6C112.68 26.6 113.375 26.77 113.985 27.11C114.595 27.45 115.07 27.93 115.41 28.55C115.75 29.16 115.92 29.865 115.92 30.665ZM114.135 30.125C114.125 29.495 113.9 28.99 113.46 28.61C113.02 28.23 112.475 28.04 111.825 28.04C111.235 28.04 110.73 28.23 110.31 28.61C109.89 28.98 109.64 29.485 109.56 30.125H114.135ZM120.93 29.765C120.93 28.745 121.165 27.83 121.635 27.02C122.115 26.21 122.76 25.58 123.57 25.13C124.39 24.67 125.285 24.44 126.255 24.44C127.365 24.44 128.35 24.715 129.21 25.265C130.08 25.805 130.71 26.575 131.1 27.575H129.045C128.775 27.025 128.4 26.615 127.92 26.345C127.44 26.075 126.885 25.94 126.255 25.94C125.565 25.94 124.95 26.095 124.41 26.405C123.87 26.715 123.445 27.16 123.135 27.74C122.835 28.32 122.685 28.995 122.685 29.765C122.685 30.535 122.835 31.21 123.135 31.79C123.445 32.37 123.87 32.82 124.41 33.14C124.95 33.45 125.565 33.605 126.255 33.605C126.885 33.605 127.44 33.47 127.92 33.2C128.4 32.93 128.775 32.52 129.045 31.97H131.1C130.71 32.97 130.08 33.74 129.21 34.28C128.35 34.82 127.365 35.09 126.255 35.09C125.275 35.09 124.38 34.865 123.57 34.415C122.76 33.955 122.115 33.32 121.635 32.51C121.165 31.7 120.93 30.785 120.93 29.765ZM140.676 30.665C140.676 30.975 140.656 31.255 140.616 31.505H134.301C134.351 32.165 134.596 32.695 135.036 33.095C135.476 33.495 136.016 33.695 136.656 33.695C137.576 33.695 138.226 33.31 138.606 32.54H140.451C140.201 33.3 139.746 33.925 139.086 34.415C138.436 34.895 137.626 35.135 136.656 35.135C135.866 35.135 135.156 34.96 134.526 34.61C133.906 34.25 133.416 33.75 133.056 33.11C132.706 32.46 132.531 31.71 132.531 30.86C132.531 30.01 132.701 29.265 133.041 28.625C133.391 27.975 133.876 27.475 134.496 27.125C135.126 26.775 135.846 26.6 136.656 26.6C137.436 26.6 138.131 26.77 138.741 27.11C139.351 27.45 139.826 27.93 140.166 28.55C140.506 29.16 140.676 29.865 140.676 30.665ZM138.891 30.125C138.881 29.495 138.656 28.99 138.216 28.61C137.776 28.23 137.231 28.04 136.581 28.04C135.991 28.04 135.486 28.23 135.066 28.61C134.646 28.98 134.396 29.485 134.316 30.125H138.891ZM144.069 27.935C144.319 27.515 144.649 27.19 145.059 26.96C145.479 26.72 145.974 26.6 146.544 26.6V28.37H146.109C145.439 28.37 144.929 28.54 144.579 28.88C144.239 29.22 144.069 29.81 144.069 30.65V35H142.359V26.735H144.069V27.935ZM150.111 28.13V32.705C150.111 33.015 150.181 33.24 150.321 33.38C150.471 33.51 150.721 33.575 151.071 33.575H152.121V35H150.771C150.001 35 149.411 34.82 149.001 34.46C148.591 34.1 148.386 33.515 148.386 32.705V28.13H147.411V26.735H148.386V24.68H150.111V26.735H152.121V28.13H150.111ZM154.567 25.64C154.257 25.64 153.997 25.535 153.787 25.325C153.577 25.115 153.472 24.855 153.472 24.545C153.472 24.235 153.577 23.975 153.787 23.765C153.997 23.555 154.257 23.45 154.567 23.45C154.867 23.45 155.122 23.555 155.332 23.765C155.542 23.975 155.647 24.235 155.647 24.545C155.647 24.855 155.542 25.115 155.332 25.325C155.122 25.535 154.867 25.64 154.567 25.64ZM155.407 26.735V35H153.697V26.735H155.407ZM161.117 28.13H159.587V35H157.862V28.13H156.887V26.735H157.862V26.15C157.862 25.2 158.112 24.51 158.612 24.08C159.122 23.64 159.917 23.42 160.997 23.42V24.845C160.477 24.845 160.112 24.945 159.902 25.145C159.692 25.335 159.587 25.67 159.587 26.15V26.735H161.117V28.13ZM163.502 25.64C163.192 25.64 162.932 25.535 162.722 25.325C162.512 25.115 162.407 24.855 162.407 24.545C162.407 24.235 162.512 23.975 162.722 23.765C162.932 23.555 163.192 23.45 163.502 23.45C163.802 23.45 164.057 23.555 164.267 23.765C164.477 23.975 164.582 24.235 164.582 24.545C164.582 24.855 164.477 25.115 164.267 25.325C164.057 25.535 163.802 25.64 163.502 25.64ZM164.342 26.735V35H162.632V26.735H164.342ZM166.017 30.86C166.017 30.01 166.187 29.265 166.527 28.625C166.877 27.975 167.357 27.475 167.967 27.125C168.577 26.775 169.277 26.6 170.067 26.6C171.067 26.6 171.892 26.84 172.542 27.32C173.202 27.79 173.647 28.465 173.877 29.345H172.032C171.882 28.935 171.642 28.615 171.312 28.385C170.982 28.155 170.567 28.04 170.067 28.04C169.367 28.04 168.807 28.29 168.387 28.79C167.977 29.28 167.772 29.97 167.772 30.86C167.772 31.75 167.977 32.445 168.387 32.945C168.807 33.445 169.367 33.695 170.067 33.695C171.057 33.695 171.712 33.26 172.032 32.39H173.877C173.637 33.23 173.187 33.9 172.527 34.4C171.867 34.89 171.047 35.135 170.067 35.135C169.277 35.135 168.577 34.96 167.967 34.61C167.357 34.25 166.877 33.75 166.527 33.11C166.187 32.46 166.017 31.71 166.017 30.86ZM175.012 30.83C175.012 30 175.182 29.265 175.522 28.625C175.872 27.985 176.342 27.49 176.932 27.14C177.532 26.78 178.192 26.6 178.912 26.6C179.562 26.6 180.127 26.73 180.607 26.99C181.097 27.24 181.487 27.555 181.777 27.935V26.735H183.502V35H181.777V33.77C181.487 34.16 181.092 34.485 180.592 34.745C180.092 35.005 179.522 35.135 178.882 35.135C178.172 35.135 177.522 34.955 176.932 34.595C176.342 34.225 175.872 33.715 175.522 33.065C175.182 32.405 175.012 31.66 175.012 30.83ZM181.777 30.86C181.777 30.29 181.657 29.795 181.417 29.375C181.187 28.955 180.882 28.635 180.502 28.415C180.122 28.195 179.712 28.085 179.272 28.085C178.832 28.085 178.422 28.195 178.042 28.415C177.662 28.625 177.352 28.94 177.112 29.36C176.882 29.77 176.767 30.26 176.767 30.83C176.767 31.4 176.882 31.9 177.112 32.33C177.352 32.76 177.662 33.09 178.042 33.32C178.432 33.54 178.842 33.65 179.272 33.65C179.712 33.65 180.122 33.54 180.502 33.32C180.882 33.1 181.187 32.78 181.417 32.36C181.657 31.93 181.777 31.43 181.777 30.86ZM187.743 28.13V32.705C187.743 33.015 187.813 33.24 187.953 33.38C188.103 33.51 188.353 33.575 188.703 33.575H189.753V35H188.403C187.633 35 187.043 34.82 186.633 34.46C186.223 34.1 186.018 33.515 186.018 32.705V28.13H185.043V26.735H186.018V24.68H187.743V26.735H189.753V28.13H187.743ZM198.904 30.665C198.904 30.975 198.884 31.255 198.844 31.505H192.529C192.579 32.165 192.824 32.695 193.264 33.095C193.704 33.495 194.244 33.695 194.884 33.695C195.804 33.695 196.454 33.31 196.834 32.54H198.679C198.429 33.3 197.974 33.925 197.314 34.415C196.664 34.895 195.854 35.135 194.884 35.135C194.094 35.135 193.384 34.96 192.754 34.61C192.134 34.25 191.644 33.75 191.284 33.11C190.934 32.46 190.759 31.71 190.759 30.86C190.759 30.01 190.929 29.265 191.269 28.625C191.619 27.975 192.104 27.475 192.724 27.125C193.354 26.775 194.074 26.6 194.884 26.6C195.664 26.6 196.359 26.77 196.969 27.11C197.579 27.45 198.054 27.93 198.394 28.55C198.734 29.16 198.904 29.865 198.904 30.665ZM197.119 30.125C197.109 29.495 196.884 28.99 196.444 28.61C196.004 28.23 195.459 28.04 194.809 28.04C194.219 28.04 193.714 28.23 193.294 28.61C192.874 28.98 192.624 29.485 192.544 30.125H197.119ZM203.586 35.135C202.936 35.135 202.351 35.02 201.831 34.79C201.321 34.55 200.916 34.23 200.616 33.83C200.316 33.42 200.156 32.965 200.136 32.465H201.906C201.936 32.815 202.101 33.11 202.401 33.35C202.711 33.58 203.096 33.695 203.556 33.695C204.036 33.695 204.406 33.605 204.666 33.425C204.936 33.235 205.071 32.995 205.071 32.705C205.071 32.395 204.921 32.165 204.621 32.015C204.331 31.865 203.866 31.7 203.226 31.52C202.606 31.35 202.101 31.185 201.711 31.025C201.321 30.865 200.981 30.62 200.691 30.29C200.411 29.96 200.271 29.525 200.271 28.985C200.271 28.545 200.401 28.145 200.661 27.785C200.921 27.415 201.291 27.125 201.771 26.915C202.261 26.705 202.821 26.6 203.451 26.6C204.391 26.6 205.146 26.84 205.716 27.32C206.296 27.79 206.606 28.435 206.646 29.255H204.936C204.906 28.885 204.756 28.59 204.486 28.37C204.216 28.15 203.851 28.04 203.391 28.04C202.941 28.04 202.596 28.125 202.356 28.295C202.116 28.465 201.996 28.69 201.996 28.97C201.996 29.19 202.076 29.375 202.236 29.525C202.396 29.675 202.591 29.795 202.821 29.885C203.051 29.965 203.391 30.07 203.841 30.2C204.441 30.36 204.931 30.525 205.311 30.695C205.701 30.855 206.036 31.095 206.316 31.415C206.596 31.735 206.741 32.16 206.751 32.69C206.751 33.16 206.621 33.58 206.361 33.95C206.101 34.32 205.731 34.61 205.251 34.82C204.781 35.03 204.226 35.135 203.586 35.135Z" fill="#999999"/>
</svg>
