<svg width="84" height="18" viewBox="0 0 84 18" fill="none" xmlns="http://www.w3.org/2000/svg">
<path d="M2.85791 4.27V14H1.26191V4.27H2.85791ZM7.75332 14.126C7.14665 14.126 6.60065 14.0187 6.11532 13.804C5.63932 13.58 5.26132 13.2813 4.98132 12.908C4.70132 12.5253 4.55199 12.1007 4.53332 11.634H6.18532C6.21332 11.9607 6.36732 12.236 6.64732 12.46C6.93665 12.6747 7.29599 12.782 7.72532 12.782C8.17332 12.782 8.51865 12.698 8.76132 12.53C9.01332 12.3527 9.13932 12.1287 9.13932 11.858C9.13932 11.5687 8.99932 11.354 8.71932 11.214C8.44865 11.074 8.01465 10.92 7.41732 10.752C6.83865 10.5933 6.36732 10.4393 6.00332 10.29C5.63932 10.1407 5.32199 9.912 5.05132 9.604C4.78999 9.296 4.65932 8.89 4.65932 8.386C4.65932 7.97533 4.78065 7.602 5.02332 7.266C5.26599 6.92067 5.61132 6.65 6.05932 6.454C6.51665 6.258 7.03932 6.16 7.62732 6.16C8.50465 6.16 9.20932 6.384 9.74132 6.832C10.2827 7.27067 10.572 7.87267 10.6093 8.638H9.01332C8.98532 8.29267 8.84532 8.01733 8.59332 7.812C8.34132 7.60667 8.00065 7.504 7.57132 7.504C7.15132 7.504 6.82932 7.58333 6.60532 7.742C6.38132 7.90067 6.26932 8.11067 6.26932 8.372C6.26932 8.57733 6.34399 8.75 6.49332 8.89C6.64265 9.03 6.82465 9.142 7.03932 9.226C7.25399 9.30067 7.57132 9.39867 7.99132 9.52C8.55132 9.66933 9.00865 9.82333 9.36332 9.982C9.72732 10.1313 10.04 10.3553 10.3013 10.654C10.5627 10.9527 10.698 11.3493 10.7073 11.844C10.7073 12.2827 10.586 12.6747 10.3433 13.02C10.1007 13.3653 9.75532 13.636 9.30732 13.832C8.86865 14.028 8.35065 14.126 7.75332 14.126ZM15.2318 14.126C14.6252 14.126 14.0792 14.0187 13.5938 13.804C13.1178 13.58 12.7398 13.2813 12.4598 12.908C12.1798 12.5253 12.0305 12.1007 12.0118 11.634H13.6638C13.6918 11.9607 13.8458 12.236 14.1258 12.46C14.4152 12.6747 14.7745 12.782 15.2038 12.782C15.6518 12.782 15.9972 12.698 16.2398 12.53C16.4918 12.3527 16.6178 12.1287 16.6178 11.858C16.6178 11.5687 16.4778 11.354 16.1978 11.214C15.9272 11.074 15.4932 10.92 14.8958 10.752C14.3172 10.5933 13.8458 10.4393 13.4818 10.29C13.1178 10.1407 12.8005 9.912 12.5298 9.604C12.2685 9.296 12.1378 8.89 12.1378 8.386C12.1378 7.97533 12.2592 7.602 12.5018 7.266C12.7445 6.92067 13.0898 6.65 13.5378 6.454C13.9952 6.258 14.5178 6.16 15.1058 6.16C15.9832 6.16 16.6878 6.384 17.2198 6.832C17.7612 7.27067 18.0505 7.87267 18.0878 8.638H16.4918C16.4638 8.29267 16.3238 8.01733 16.0718 7.812C15.8198 7.60667 15.4792 7.504 15.0498 7.504C14.6298 7.504 14.3078 7.58333 14.0838 7.742C13.8598 7.90067 13.7478 8.11067 13.7478 8.372C13.7478 8.57733 13.8225 8.75 13.9718 8.89C14.1212 9.03 14.3032 9.142 14.5178 9.226C14.7325 9.30067 15.0498 9.39867 15.4698 9.52C16.0298 9.66933 16.4872 9.82333 16.8418 9.982C17.2058 10.1313 17.5185 10.3553 17.7798 10.654C18.0412 10.9527 18.1765 11.3493 18.1858 11.844C18.1858 12.2827 18.0645 12.6747 17.8218 13.02C17.5792 13.3653 17.2338 13.636 16.7858 13.832C16.3472 14.028 15.8292 14.126 15.2318 14.126ZM26.8964 6.286V14H25.3004V13.09C25.0484 13.4073 24.717 13.6593 24.3064 13.846C23.905 14.0233 23.4757 14.112 23.0184 14.112C22.4117 14.112 21.8657 13.986 21.3804 13.734C20.9044 13.482 20.5264 13.1087 20.2464 12.614C19.9757 12.1193 19.8404 11.522 19.8404 10.822V6.286H21.4224V10.584C21.4224 11.2747 21.595 11.8067 21.9404 12.18C22.2857 12.544 22.757 12.726 23.3544 12.726C23.9517 12.726 24.423 12.544 24.7684 12.18C25.123 11.8067 25.3004 11.2747 25.3004 10.584V6.286H26.8964ZM36.0721 9.954C36.0721 10.2433 36.0535 10.5047 36.0161 10.738H30.1221C30.1688 11.354 30.3975 11.8487 30.8081 12.222C31.2188 12.5953 31.7228 12.782 32.3201 12.782C33.1788 12.782 33.7855 12.4227 34.1401 11.704H35.8621C35.6288 12.4133 35.2041 12.9967 34.5881 13.454C33.9815 13.902 33.2255 14.126 32.3201 14.126C31.5828 14.126 30.9201 13.9627 30.3321 13.636C29.7535 13.3 29.2961 12.8333 28.9601 12.236C28.6335 11.6293 28.4701 10.9293 28.4701 10.136C28.4701 9.34267 28.6288 8.64733 28.9461 8.05C29.2728 7.44333 29.7255 6.97667 30.3041 6.65C30.8921 6.32333 31.5641 6.16 32.3201 6.16C33.0481 6.16 33.6968 6.31867 34.2661 6.636C34.8355 6.95333 35.2788 7.40133 35.5961 7.98C35.9135 8.54933 36.0721 9.20733 36.0721 9.954ZM34.4061 9.45C34.3968 8.862 34.1868 8.39067 33.7761 8.036C33.3655 7.68133 32.8568 7.504 32.2501 7.504C31.6995 7.504 31.2281 7.68133 30.8361 8.036C30.4441 8.38133 30.2108 8.85267 30.1361 9.45H34.4061ZM37.1108 10.108C37.1108 9.33333 37.2694 8.64733 37.5868 8.05C37.9134 7.45267 38.3521 6.99067 38.9028 6.664C39.4628 6.328 40.0834 6.16 40.7648 6.16C41.2688 6.16 41.7634 6.272 42.2488 6.496C42.7434 6.71067 43.1354 7 43.4248 7.364V3.64H45.0348V14H43.4248V12.838C43.1634 13.2113 42.7994 13.5193 42.3328 13.762C41.8754 14.0047 41.3481 14.126 40.7508 14.126C40.0788 14.126 39.4628 13.958 38.9028 13.622C38.3521 13.2767 37.9134 12.8007 37.5868 12.194C37.2694 11.578 37.1108 10.8827 37.1108 10.108ZM43.4248 10.136C43.4248 9.604 43.3128 9.142 43.0888 8.75C42.8741 8.358 42.5894 8.05933 42.2348 7.854C41.8801 7.64867 41.4974 7.546 41.0868 7.546C40.6761 7.546 40.2934 7.64867 39.9388 7.854C39.5841 8.05 39.2948 8.344 39.0708 8.736C38.8561 9.11867 38.7488 9.576 38.7488 10.108C38.7488 10.64 38.8561 11.1067 39.0708 11.508C39.2948 11.9093 39.5841 12.2173 39.9388 12.432C40.3028 12.6373 40.6854 12.74 41.0868 12.74C41.4974 12.74 41.8801 12.6373 42.2348 12.432C42.5894 12.2267 42.8741 11.928 43.0888 11.536C43.3128 11.1347 43.4248 10.668 43.4248 10.136ZM55.2058 14.098C54.3004 14.098 53.4651 13.888 52.6998 13.468C51.9438 13.0387 51.3418 12.446 50.8938 11.69C50.4551 10.9247 50.2358 10.066 50.2358 9.114C50.2358 8.162 50.4551 7.308 50.8938 6.552C51.3418 5.796 51.9438 5.208 52.6998 4.788C53.4651 4.35867 54.3004 4.144 55.2058 4.144C56.1204 4.144 56.9558 4.35867 57.7118 4.788C58.4771 5.208 59.0791 5.796 59.5178 6.552C59.9564 7.308 60.1758 8.162 60.1758 9.114C60.1758 10.066 59.9564 10.9247 59.5178 11.69C59.0791 12.446 58.4771 13.0387 57.7118 13.468C56.9558 13.888 56.1204 14.098 55.2058 14.098ZM55.2058 12.712C55.8498 12.712 56.4238 12.5673 56.9278 12.278C57.4318 11.9793 57.8238 11.5593 58.1038 11.018C58.3931 10.4673 58.5378 9.83267 58.5378 9.114C58.5378 8.39533 58.3931 7.76533 58.1038 7.224C57.8238 6.68267 57.4318 6.26733 56.9278 5.978C56.4238 5.68867 55.8498 5.544 55.2058 5.544C54.5618 5.544 53.9878 5.68867 53.4838 5.978C52.9798 6.26733 52.5831 6.68267 52.2938 7.224C52.0138 7.76533 51.8738 8.39533 51.8738 9.114C51.8738 9.83267 52.0138 10.4673 52.2938 11.018C52.5831 11.5593 52.9798 11.9793 53.4838 12.278C53.9878 12.5673 54.5618 12.712 55.2058 12.712ZM65.6383 6.16C66.245 6.16 66.7863 6.286 67.2623 6.538C67.7476 6.79 68.1256 7.16333 68.3963 7.658C68.667 8.15267 68.8023 8.75 68.8023 9.45V14H67.2203V9.688C67.2203 8.99733 67.0476 8.47 66.7023 8.106C66.357 7.73267 65.8856 7.546 65.2883 7.546C64.691 7.546 64.215 7.73267 63.8603 8.106C63.515 8.47 63.3423 8.99733 63.3423 9.688V14H61.7463V6.286H63.3423V7.168C63.6036 6.85067 63.935 6.60333 64.3363 6.426C64.747 6.24867 65.181 6.16 65.6383 6.16Z" fill="#000842"/>
<path d="M80.3186 15.8052C80.2419 15.934 80.1349 16.0404 80.0078 16.1141C79.8806 16.1879 79.7375 16.2266 79.592 16.2266C79.4464 16.2266 79.3033 16.1879 79.1762 16.1141C79.049 16.0404 78.942 15.934 78.8654 15.8052L76.1299 11.2524C76.0489 11.1173 76.0041 10.9621 76.0003 10.8029C75.9964 10.6437 76.0336 10.4863 76.108 10.3472C76.1824 10.2081 76.2912 10.0923 76.4232 10.0118C76.5551 9.93142 76.7054 9.88934 76.8582 9.88998H82.3291C82.4814 9.89061 82.6308 9.93362 82.7618 10.0146C82.8928 10.0955 83.0006 10.2114 83.0742 10.3503C83.1478 10.4892 83.1844 10.6461 83.1802 10.8047C83.1761 10.9633 83.1313 11.1178 83.0506 11.2524L80.3186 15.8052Z" fill="#999999"/>
<path d="M78.8706 2.19481C78.9473 2.06595 79.0543 1.95962 79.1814 1.88588C79.3086 1.81214 79.4517 1.77344 79.5972 1.77344C79.7428 1.77344 79.8859 1.81214 80.013 1.88588C80.1402 1.95962 80.2472 2.06595 80.3238 2.19481L83.0593 6.74764C83.1403 6.88269 83.1851 7.0379 83.1889 7.1971C83.1928 7.3563 83.1556 7.51367 83.0812 7.6528C83.0068 7.79194 82.898 7.90774 82.766 7.98816C82.6341 8.06858 82.4838 8.11066 82.331 8.11002H76.8601C76.7078 8.10939 76.5584 8.06638 76.4274 7.98545C76.2964 7.90452 76.1886 7.7886 76.115 7.64969C76.0414 7.51077 76.0048 7.35391 76.009 7.19532C76.0131 7.03673 76.0579 6.88218 76.1386 6.74764L78.8706 2.19481Z" fill="#000842"/>
</svg>
