<svg width="57" height="18" viewBox="0 0 57 18" fill="none" xmlns="http://www.w3.org/2000/svg">
<path d="M9.16119 14H7.56519L2.76319 6.734V14H1.16719V4.256H2.76319L7.56519 11.508V4.256H9.16119V14ZM10.725 10.108C10.725 9.33333 10.8837 8.64733 11.201 8.05C11.5277 7.45267 11.9664 6.99067 12.517 6.664C13.077 6.328 13.693 6.16 14.365 6.16C14.9717 6.16 15.499 6.28133 15.947 6.524C16.4044 6.75733 16.7684 7.05133 17.039 7.406V6.286H18.649V14H17.039V12.852C16.7684 13.216 16.3997 13.5193 15.933 13.762C15.4664 14.0047 14.9344 14.126 14.337 14.126C13.6744 14.126 13.0677 13.958 12.517 13.622C11.9664 13.2767 11.5277 12.8007 11.201 12.194C10.8837 11.578 10.725 10.8827 10.725 10.108ZM17.039 10.136C17.039 9.604 16.927 9.142 16.703 8.75C16.4884 8.358 16.2037 8.05933 15.849 7.854C15.4944 7.64867 15.1117 7.546 14.701 7.546C14.2904 7.546 13.9077 7.64867 13.553 7.854C13.1984 8.05 12.909 8.344 12.685 8.736C12.4704 9.11867 12.363 9.576 12.363 10.108C12.363 10.64 12.4704 11.1067 12.685 11.508C12.909 11.9093 13.1984 12.2173 13.553 12.432C13.917 12.6373 14.2997 12.74 14.701 12.74C15.1117 12.74 15.4944 12.6373 15.849 12.432C16.2037 12.2267 16.4884 11.928 16.703 11.536C16.927 11.1347 17.039 10.668 17.039 10.136ZM30.0833 6.16C30.69 6.16 31.2313 6.286 31.7073 6.538C32.1926 6.79 32.5706 7.16333 32.8413 7.658C33.1213 8.15267 33.2613 8.75 33.2613 9.45V14H31.6793V9.688C31.6793 8.99733 31.5066 8.47 31.1613 8.106C30.816 7.73267 30.3446 7.546 29.7473 7.546C29.15 7.546 28.674 7.73267 28.3193 8.106C27.974 8.47 27.8013 8.99733 27.8013 9.688V14H26.2193V9.688C26.2193 8.99733 26.0466 8.47 25.7013 8.106C25.356 7.73267 24.8846 7.546 24.2873 7.546C23.69 7.546 23.214 7.73267 22.8593 8.106C22.514 8.47 22.3413 8.99733 22.3413 9.688V14H20.7453V6.286H22.3413V7.168C22.6026 6.85067 22.934 6.60333 23.3353 6.426C23.7366 6.24867 24.166 6.16 24.6233 6.16C25.2393 6.16 25.79 6.29067 26.2753 6.552C26.7606 6.81333 27.134 7.19133 27.3953 7.686C27.6286 7.21933 27.9926 6.85067 28.4873 6.58C28.982 6.3 29.514 6.16 30.0833 6.16ZM42.3622 9.954C42.3622 10.2433 42.3435 10.5047 42.3062 10.738H36.4122C36.4589 11.354 36.6875 11.8487 37.0982 12.222C37.5089 12.5953 38.0129 12.782 38.6102 12.782C39.4689 12.782 40.0755 12.4227 40.4302 11.704H42.1522C41.9189 12.4133 41.4942 12.9967 40.8782 13.454C40.2715 13.902 39.5155 14.126 38.6102 14.126C37.8729 14.126 37.2102 13.9627 36.6222 13.636C36.0435 13.3 35.5862 12.8333 35.2502 12.236C34.9235 11.6293 34.7602 10.9293 34.7602 10.136C34.7602 9.34267 34.9189 8.64733 35.2362 8.05C35.5629 7.44333 36.0155 6.97667 36.5942 6.65C37.1822 6.32333 37.8542 6.16 38.6102 6.16C39.3382 6.16 39.9869 6.31867 40.5562 6.636C41.1255 6.95333 41.5689 7.40133 41.8862 7.98C42.2035 8.54933 42.3622 9.20733 42.3622 9.954ZM40.6962 9.45C40.6869 8.862 40.4769 8.39067 40.0662 8.036C39.6555 7.68133 39.1469 7.504 38.5402 7.504C37.9895 7.504 37.5182 7.68133 37.1262 8.036C36.7342 8.38133 36.5009 8.85267 36.4262 9.45H40.6962Z" fill="#999999"/>
<path d="M53.3186 15.8052C53.2419 15.934 53.1349 16.0404 53.0078 16.1141C52.8806 16.1879 52.7375 16.2266 52.592 16.2266C52.4464 16.2266 52.3033 16.1879 52.1762 16.1141C52.049 16.0404 51.942 15.934 51.8654 15.8052L49.1299 11.2524C49.0489 11.1173 49.0041 10.9621 49.0003 10.8029C48.9964 10.6437 49.0336 10.4863 49.108 10.3472C49.1824 10.2081 49.2912 10.0923 49.4232 10.0118C49.5551 9.93142 49.7054 9.88934 49.8582 9.88998H55.3291C55.4814 9.89061 55.6308 9.93362 55.7618 10.0146C55.8928 10.0955 56.0006 10.2114 56.0742 10.3503C56.1478 10.4892 56.1844 10.6461 56.1802 10.8047C56.1761 10.9633 56.1313 11.1178 56.0506 11.2524L53.3186 15.8052Z" fill="#999999"/>
<path d="M51.8706 2.19481C51.9473 2.06595 52.0543 1.95962 52.1814 1.88588C52.3086 1.81214 52.4517 1.77344 52.5972 1.77344C52.7428 1.77344 52.8859 1.81214 53.013 1.88588C53.1402 1.95962 53.2472 2.06595 53.3238 2.19481L56.0593 6.74764C56.1403 6.88269 56.1851 7.0379 56.1889 7.1971C56.1928 7.3563 56.1556 7.51367 56.0812 7.6528C56.0068 7.79194 55.898 7.90774 55.766 7.98816C55.6341 8.06858 55.4838 8.11066 55.331 8.11002H49.8601C49.7078 8.10939 49.5584 8.06638 49.4274 7.98545C49.2964 7.90452 49.1886 7.7886 49.115 7.64969C49.0414 7.51077 49.0048 7.35391 49.009 7.19532C49.0131 7.03673 49.0579 6.88218 49.1386 6.74764L51.8706 2.19481Z" fill="#999999"/>
</svg>
