<svg width="20" height="16" viewBox="0 0 20 16" fill="none" xmlns="http://www.w3.org/2000/svg">
<path d="M13.0196 3.10751H7.24706L6.09882 1.7428C6.0602 1.69637 6.00231 1.67033 5.94196 1.67221H1.28471C0.573647 1.67739 0 2.25527 0 2.96633V11.3601C0.000862745 12.0735 0.579059 12.6517 1.29255 12.6526H13.0196C13.7331 12.6517 14.3113 12.0735 14.3122 11.3601V4.40006C14.3113 3.68657 13.7331 3.10837 13.0196 3.10751Z" fill="#757897"/>
<path d="M14.7155 1.43539H8.94136L7.79313 0.0706837C7.7545 0.0242523 7.69662 -0.00178689 7.63627 9.54656e-05H2.98058C2.3354 0.00115429 1.78983 0.477782 1.70215 1.11696H5.94842C6.17109 1.11641 6.3825 1.21468 6.52568 1.38519L7.50607 2.55068H13.0198C14.0396 2.55241 14.8659 3.37872 14.8676 4.39853V10.9679C15.5142 10.8873 15.9997 10.338 16.0002 9.68637V2.72637C15.9985 2.01653 15.4253 1.44057 14.7155 1.43539Z" fill="#757897"/>
<rect x="2.3999" y="8.80005" width="4.8" height="1.6" rx="0.8" fill="white"/>
<circle cx="14.3998" cy="9.6" r="5.6" fill="white"/>
<path d="M13.4746 8.89692C13.6423 8.89692 13.7824 8.84801 13.8956 8.77208C13.8015 8.86483 13.6965 8.98799 13.608 9.1507C13.4826 9.3812 13.4042 9.66478 13.4042 10.0144C13.4042 10.1825 13.4184 10.4399 13.5801 10.6487C13.3929 10.8301 13.2779 11.0845 13.2779 11.3601C13.2779 11.8782 13.6934 12.3467 14.2581 12.3467C14.8143 12.3467 15.2446 11.8868 15.2446 11.3601C15.2446 11.0879 15.1321 10.84 14.9513 10.6608C15.0929 10.4968 15.1245 10.3075 15.1245 10.1786C15.1245 9.99887 15.1312 9.96006 15.1404 9.935C15.1404 9.93487 15.1405 9.93471 15.1405 9.93453C15.143 9.92758 15.1591 9.88228 15.2858 9.7831C15.3785 9.71105 15.595 9.54016 15.7894 9.29241C15.9827 9.04615 16.186 8.68355 16.186 8.23263C16.186 7.26015 15.31 6.69011 14.3402 6.69011C13.3046 6.69011 12.5955 7.33441 12.5955 8.03677C12.5955 8.31827 12.7217 8.54883 12.9072 8.69843C13.0789 8.83697 13.2878 8.89692 13.4746 8.89692ZM14.0523 8.63306C14.0874 8.59285 14.1145 8.555 14.1329 8.52863C14.1488 8.50567 14.1576 8.49258 14.1645 8.48228C14.1724 8.47061 14.1778 8.46253 14.1886 8.44773C14.1987 8.43384 14.2047 8.42689 14.2077 8.42382C14.2166 8.4203 14.2489 8.41039 14.3212 8.41039C14.3235 8.41039 14.3257 8.41041 14.3279 8.41043C14.2939 8.44328 14.2516 8.4782 14.1965 8.521C14.1849 8.53004 14.1716 8.54027 14.1572 8.55132C14.1252 8.57584 14.088 8.6044 14.0523 8.63306ZM14.3914 8.33113C14.3916 8.33108 14.3914 8.3323 14.3903 8.33491C14.3906 8.33248 14.3912 8.33117 14.3914 8.33113ZM14.2099 8.42174C14.2099 8.42178 14.2095 8.42222 14.2086 8.42283L14.2099 8.42174ZM10.1001 9.60005C10.1001 7.22301 12.0233 5.30005 14.4001 5.30005C16.7771 5.30005 18.7001 7.22322 18.7001 9.60005C18.7001 11.9771 16.7769 13.9 14.4001 13.9C12.0231 13.9 10.1001 11.9768 10.1001 9.60005Z" fill="#757897" stroke="#757897"/>
</svg>
